<mxfile host="app.diagrams.net" agent="Mozilla/5.0 (Windows NT 10.0; Win64; x64) AppleWebKit/537.36 (KHTML, like Gecko) Chrome/132.0.0.0 Safari/537.36" version="26.0.14">
  <diagram name="Page-1" id="H6LWmaowWOa5wnmprN6k">
    <mxGraphModel dx="565" dy="333" grid="1" gridSize="10" guides="1" tooltips="1" connect="1" arrows="1" fold="1" page="1" pageScale="1" pageWidth="1100" pageHeight="850" math="0" shadow="0">
      <root>
        <mxCell id="0" />
        <mxCell id="1" parent="0" />
        <mxCell id="-A37LQIsE4QHnwAx1lAB-10" style="edgeStyle=orthogonalEdgeStyle;rounded=0;orthogonalLoop=1;jettySize=auto;html=1;entryX=0.6;entryY=1.022;entryDx=0;entryDy=0;entryPerimeter=0;" edge="1" parent="1" source="-A37LQIsE4QHnwAx1lAB-3" target="ljl5ft7ZTBluvvlXeNtD-13">
          <mxGeometry relative="1" as="geometry">
            <Array as="points">
              <mxPoint x="670" y="320" />
            </Array>
          </mxGeometry>
        </mxCell>
        <mxCell id="-A37LQIsE4QHnwAx1lAB-3" value="" style="rounded=1;whiteSpace=wrap;html=1;fillColor=none;arcSize=5;strokeColor=light-dark(#ffd500, #ededed);" vertex="1" parent="1">
          <mxGeometry x="350" y="244" width="230" height="152.2" as="geometry" />
        </mxCell>
        <mxCell id="ljl5ft7ZTBluvvlXeNtD-8" value="" style="rounded=1;whiteSpace=wrap;html=1;fillColor=none;arcSize=3;strokeColor=#3399FF;" parent="1" vertex="1">
          <mxGeometry x="350" y="49.85" width="230" height="150.15" as="geometry" />
        </mxCell>
        <mxCell id="ljl5ft7ZTBluvvlXeNtD-9" style="edgeStyle=orthogonalEdgeStyle;rounded=0;orthogonalLoop=1;jettySize=auto;html=1;strokeColor=#007FFF;strokeWidth=5;" parent="1" source="ljl5ft7ZTBluvvlXeNtD-2" target="ljl5ft7ZTBluvvlXeNtD-8" edge="1">
          <mxGeometry relative="1" as="geometry">
            <Array as="points">
              <mxPoint x="250" y="60" />
              <mxPoint x="250" y="115" />
            </Array>
          </mxGeometry>
        </mxCell>
        <mxCell id="ljl5ft7ZTBluvvlXeNtD-2" value="" style="shape=image;verticalLabelPosition=bottom;verticalAlign=top;imageAspect=0;aspect=fixed;image=data:image/png,iVBORw0KGgoAAAANSUhEUgAAARwAAACxCAMAAAAh3/JWAAAA6lBMVEX///8AeNMAdtT6//8AbcorgsWu2fP//v/1//8AddMAbcgActEAeNHB5O0AcM8siMrx//9Dl9lSmcoAb8ahxeGXxN+GuNkAc8EAbc254fUAcM0AasoAdMchhM12tdaMvuQSeMFkoNXo+PpvqdKoz+jV7vV9vdoAacLD4fAAectUmNBcpdjg+P4AbcDd8Pix0eBOl9Ky2e2vzd1/tNsce76w2OZsq9EvjtWSweLT8PSj1exio8/B3e1xseKx2fKj0uRDkMdvw+uSyezO8P+v6fqs4PjS//9gsuA4mN0ch9pto8oAcLWfwttPlMAbA2E/AAAMiklEQVR4nO2dYWOiOBqAIaSVkDZgU1sq0FqEAsq4uu5MnVpnetPbu529u///dy4BVHQUtbVVaZ4PbdUIydPkTQIEJEkgEAgEAoFAIHhnfgt3nYM9phbUdp2F/aVGzJYhSZVd52MPqTA5cr0hmtYiEjkngA6UXedkD0nlyDLsuqJlzZPIYQAcXe06L3vHWA7TE/RF05plKkeWTT0WTStPXo6MbG/X+dkrZuTIADbVXedor8jLkWWi+2JAOKWG83JkREXTGuPWdHkO2DZ2nat9QAlvAxPMy5Fx43nXOds58cDR0K9qeFz+4LMJ9eqWErTITNq0Wu6uc7gz4hsHLq4006YVfshOS7k6g6TQTNK0rP6uM/p+VLLhS3zTgHilGo5ZjaUPMuZJCmn0uhperSUD2b1d5/r98PsNszjSzDctOPoYswmjV9VWR5p56vrXVS1LdcPf36kMb4Tfj8zlHXdB3SmcqKvx1fmtLlt/HPCoSP1eDdaLwYv0WO2FTavz+ablBBDzDR8drJznPq2/pNJM7BDHz29PicPzL/cUQjzeKjhQOa6n0/W7p2V6tOy0n+r3bm4b1CR4xvZBylHDpg1f2pxyZUfYOnM73nU1opDw7g7MbvQA5bB5JXxNc0q1EPPkj9bN8dcHy8TLtnZwcpQhfXEMzrxAjTrNWthJ4vExLEh7aHL65svFIGIGl9X+w2nuoFeZ5PSsDYUktQxgVLe0++HgMZ4vbonk+PamTYo1Iy2IqqPvobqwpOWRYzhrROJJlwMwgSdHrcG3rwXHjssjp02Wl2RaJF5dCNTsexZ13VUTzNLI8QoKMikQJoQ2uv1jf71TDWWRc1o48DuRETYhZFE3/CXqFlASOW5j6WCNR5cg6o6++xsfpimHHKWFTxYUALHwQvXbwbf4ZWfsyiHnYlKKk3T0wse6lHXS3uqoW0Ap5Fxp+erCpka0wadGrz7BWwY58WT0h9jU6P5LLYy3cxS4BHIUfRyM0eizvzr9+pRATnMy+oOn0lbPOR2+nNzoL5GzRQ5ejqpPRziakDOLqgMhZxlCTgFMzomQswQhpwAhpwAhpwAhpwAhpwAhpwAhpwAhpwAhpwAhpwAhpwAhpwAhpwAhpwAhpwAhpwAhpwAhpwAhpwAhpwAhpwAhpwAhpwAhpwAhpwAhpwAhpwAhpwAhpwD1aLqmXsiZQ+ndtPSoztenAnHZ2wIUt/NY+1JtBELOctzfhuePz1u6CFkqmRxJGlpECy6rox+fN18G8islkyN1UbLwoQ4h/dm+8PzOa67xL5sc4whl61rTBeK0oY8Gx19fdjOusslJlsHm16Wl661sp9v//ugamxWodHKkUFu0Zg/gOoFa9DQc9J6NdcNR+eRIDwXLyxEiLGI7rVEt7IzTL18sUUI5a9yYgEUjCKEzvPAK13yWUY50tvIGMQDwgI2wadqN6mhw5S+M2KWUY+gb3AmFd2qQRk73zgvd2Y6/lHKkuLG+nBlHztPo/NtXNyt3OeUs6bIK5SQ/EkWs42+Nvoeu9KdWkP5w5Wx+R5TZkiPW8VvRz6IkByxHunmVnbT8RbXvoOWsd+OPFXYKPiNPhyxH1V99x7cCkoccHTBx9Mpbmy0HWP1Dv3+pT19/S7yFakDwY9dlez2v67KWgujnXZdsG9Tewg5u+FKlDLeTHr6+y5rHfIp3XaotoWy9yzJvDz0UT3Eb2w3K8GLXJdomXz/l7SCY1qRF92laDQBayZ5J08vNHvHdc78BX9jSgIzsLZ813D25LguzRmGEzch8kR98VJZQnGM0uUc9TiOG0Wvb/DkQG4Sjk8OfMSxG6Y4rCp6EU9dr0c3uXm+ODnmmuZzJbUtxvq+JvQ2eewBgaR827NsL5Ej8xtu6tdbtpcGnsj5HpDK5Wd68HIZ/4VgrwzOfMZSYGlwoh0+RFL/vFHfvpl7yB1/1+aPiFtScBNa9N8yl7csclrGbmlLhXRZYKodhPLLufVH3BeAHeIIu77IK5DDch9anX54qB4KH98rhLoltUCyHp/G61sxzWBD9IE+SO9VWymHENX36BB/slHDGsBjPWuuAg+IPdN59AUC6Je+m8vTXfZ6gmnTv1od64rL6uEHa0+bg7XIiEAgEAoFAIBAIBAKBQPBBUIy1l9mthWpkbHyCwXBf81ixN6HpOPo2TyL97WQ8jb5tsN140HKiSB/29umEVhwAYG7zVMkZBgAhBGSAzct1r9oy+pQg/jUEnT06b3NBWFmOtrjBMyTbl4xPAQGydbZWQ+k4BCD4yWkEJkZWe1/O+BkUnERA2+BA8CrOEPEUVVWN2HOwTM7WKGncQMBshYaiuMl32tvLzauoEdQfmKiVvfS9Ka4knXpemH7get7vvJid5J2Ol9p0H2s1rzNbfCbnPPtTHdblyUU4bm+clm3Ly76jsj8lqYWBNk5mtNl3ktb46HkdSQ29yR4qktLxarXeZBHyG6M6APoxZT/S13cWGWOx8l9b1k36gW+Zl2qlIp1bVlNtUqvJC9m0TZZQ6z7nN5mTw4qNQJQ0rHhITZZYa7EdGZemlTl/sKyWFFqgPr2OSe1i0OBRuWpax74O2R5gN81e3ILEJFDrhm+kY5YriLqS1Eb1Zvr6LqhTzoks8/xf4/pYTh00eCnPCfrSJojLYYECQ2pDjGn+itAZOT7zzq9R8i8xgie2hrDNTPYxzvbXQvBRukWomqt9vgaSqlNF9X/YRNM0IiN6JfFFuBhRm2rYvH47Izm6yGR5P7WAnZ6HdP2EZ0cmI4nLIfNyTDnCWvfmkV9FgPUr1/DbEDm5sDsjh+2AezAaAFdPWdpWHekKL76d1qcAHKmqDcyZXu0MoVvWhqpIRvD2tOP/sAGwY0nqmagaK/FpO3iX7j6EvNZXJB2RmbNtQ4xb/H+5QA6RQZTU6gFEeuqkia3cFWyzclhMq0rSDUHdtG60sfnIlSX1iW2NbZ8ZgjNhZIABM8jlkPR0amzLmP01IPV03dH7nFAeonoixTOBk/tv9FldSF7m5GgTOWm8UHRQz5p+TMethDMnpw7uJfUIaVlQ8ym/8oDt75a/6iLqS88BqM8U1yOAa6+ibNFnRfLqcqQktTZ8tzF0bAOaZEu9TENDljmY1GJpcbNCevZd2f7nVUrEa8eYOTmYfdahIMrS/hlh1lG7EaDMfieJeHEgw5kLLyY1Z7xzybVlZpH9BNDph+8zDLqpozab0Liu0SfT8oUUaVmdWNSsUFpLOlSWYQZCznSjs3LaPPb65jQtQPcSb4nE4xb42Nyw5fqvMYfLgcfjtxrJbefCiO0Ka0dX29WwEOMSsJBnMSAb7ac3vavw6gTHeb3GOJMTmpmccUfD5VxO0PNFy8lxbaA9SB0zn/aJvf8cYDa00oHNWy/rrbq5bMVUNrPeary0UYnS7BmeTtlY2noHOx7rIzkYI4xknI5LjSNkTq4qua6j7G9W1WdrDm8Z/5rMwJf1Vm0ss/J3WKuYTavoSHNZ/PnCE/XgTHd1hsAlb+xVgEfZW2xEQLOWF9ciwHu8t8YBqHub0UXp7pUuJreTq9IuiJyO4VjVn5PDhih4LHEmqzk5St+UTT68e8J4kG00S1szSW2AYTp8ZMO+ycIiZQRlKxkSVgGgWRhvY+BMvhrXecB64wvnrqxs9Jqgo+QCtibrdKdvPpoybsWSEur4FzlXrAf+keT32x/5eMrnVvy34vZ0AkgyJOhZvHXxN71smYyrob90NuFNyhhHCMD2qcLXl+h1Nh9LkvBxjsPtqdcwmVHUbhNXrgwu33yg0wX13CVrvIsy2OBFRv++S3nkgzfW3KjjUPLXybwcqWnK8P6idncPzaN8s8Ig4odzIhvy6WRajDYE9epd7dqB5tN4wCPLZBxTnhtYxppzfx9BAGAr3RqT85PQbr8dEZmw/5hqY9qteTU2KHvzmelzINPcf5wNYlnD1xEAOCW52C+kydEZ8+mZjuVMxjRKH7JgRTAmTn6uc8YXFiVg87I2nmAOWVo2S8LmUdZS2PgTTPfvtinm4U9GJBpk36ki7aFlsZwAZPILCdmUjmBimog4bz4K/DvQhvmWexFoR5JOJwRJtfLbNqVOTekE2n+4nP8G8O/JV8JhpGm0681U8v9p2QacYf4DlpZqtOWN65jSoEG+Avh9h31Oq7VJwZmcY8m7Z1uqZt/yrx22P2ewRwcLCw8Gqxtk1FiRVnFnakQih+EqM2n26TBzZfyzsuET7ytLkq+9kbGc+Vy8G/t8JXlejmCOncvZ65oDA1FzltHxF99qUCAoZp+bvEAgEBTxf04fGp+Yhi8LAAAAAElFTkSuQmCC" parent="1" vertex="1">
          <mxGeometry x="134.5" y="33.85" width="84" height="52.35" as="geometry" />
        </mxCell>
        <mxCell id="ljl5ft7ZTBluvvlXeNtD-3" value="" style="shape=image;verticalLabelPosition=bottom;verticalAlign=top;imageAspect=0;aspect=fixed;image=data:image/png,iVBORw0KGgoAAAANSUhEUgAAAOEAAADhCAMAAAAJbSJIAAAAaVBMVEX///8hs+YAr+UAreTu+f2k3PP6/f5FvurO7fkAsOX2/P7A5/fp9/xixuxRwevx+v2Az+/e8/ub2fIzuei85veq3/Rtyu2U1/IAquPK6/jW8PqG0vA2uuhLv+pZw+vk9fx3ze604vZsxuwic0HeAAAM3UlEQVR4nO1dbdOiOgx9WhAN+IaIrqAo/v8feQHfoE1LChS9M5yZ/bA7LO2Rpk2T0/Tvb8KECRMmTJgwYcKECRMmTJgwYcKECT8NN8jjfEF4MNzn+T603p+hEWRQgaX6vvvx+fFgNNuM1LVBsFwV3B6AaKd58HR+PcfgvB+tf72RRO9+l11fKR+M688xmI3Yx14IWaPjjB8UD+bN55iTj9rPzvDPQscZxwdqwkRwysz0fRxFggXQ6WYtPQhrb+zedgFCEFLkuRP2YDB6d82x53LH2RlZCrYYQ/Ws9DvAOs4YYmAR9lz0+8PUyzCGXF7rPOxbM5Z8oc9m8C5Yv5GlznVQhr8/m3rzieETgzNcLvv0m47vMPRn538Fzju3b//b8RWGp8jJjnF8zBxm333/BsOARadqlfEWcx73ZdCGLzC8suhtgv4cbM9VX2C4gtPfch8EQbmWumxu2WkYn+GV34uByoFzWBffcuZY9m3HZ5g7cenGR1nG4F6OWcu+7fgMU6fYm514sX1JoXBrvTXrTWIxO6bHWBFhssVwEe92Meq0HvjywdA/QFT8/Q79FkV/x3gZG+NOFGMmbYXhZldaWfGHHeVt2IMhg38ORKfi7xn0cm5qwTEGc8SmLTD04k9kCyKpzdRJqu30/Vya4Z977jVK980gExyksTo8w6QZ7QBxSc+dXTmXzssIWOHRLGDdg2Ai7ukAdsJQHZqhm4Kw4QTBMVuW0Z1weywWCrYuB22PiJ13lnvEo+YLB2Y4Y8iGWrCzm1P7rCc4+90ZztBtOVzqU9ygDE9SYLJ6mRB/daNPACsEOHUnuEG370WLLP38qgMyDA94e8wRJtRF8f5qhdjEDPpElRM0xlQRiN7jZDCG3hEboBWk/UO4dqL78XiLnKjHF/z72ykZFo3Ok2EZBmc8UlW9bSu9bX9g//6xVd7P6z5oGBZD53AdjmGyVvMrkFnaPqBxwhoLdvSHYehulQP0AVsbpJW+2aeT05uhF6MzaB220hu3tobLRFrSM16atAzQ6m2qdF1fxK1Nl04O/s9khpnT/juCLq3cB9d2gso+kRlS4FgL/d/bf94xGMLcFsG/BWGYjsHQYiAm7dqrIRnymz2CxYLR8SsOyNA52I0WSru1sRny1HYONbh0oTgUQzRwMjQ8dFM6CkNgux67WwNszIfqEAzBSUfInT0R3g1nnAEYwmpc/aKhOfZmyC+jK238WWTAsSfD0QxQ6OKW4CQPwRD4baQUvYSQ7AD0YeiMbIBNBBcax+4MYf5lYa2/I5ljV4YQ7b4vjl5uCatjN4YAXzPAJsKstbOdGPLsd0RurebYgSEfwwWlo211RPJBeoaFAY6kw/T8axJuCI0tbzqHHEmXKNSXj8fZ7UronL9ckPqmgTfLgDucXyh6sWSt+SrIkoYqaCs4c4oB5ivmFH07p5QfQ4EY+PO7gLMlzNrKXAOalk0V35yTjpbk7NO3W0eXztvW+wu4MEH4L4rVEU3LLtBHaS7oqZH5hnm3z5gKHwTWhMzVFUs5wBrtNJIHAXYgrIDLg9AIRF38glhqH+BOaD6R91WAm1WI/BQEwZC3k3/ELhr/JTYRAEf0LBL2gjkqhWZB8+08IhlghBm7Y+69YidfSo5sRjDHeigHNGnZRc1sCwMkdGsxV8xPF+PZRjmXw4VgjsttVCmngEepbmRvqufKwcG2hNniql50jWWl6px9YY4HQmeWQbrKslve9ug1v2Xz+WpH2ANqMvtFr44kXh/sdU4YoOeYbEM0b6FPpnONPJMKHK3LqQUs2px7U61XC0OiOYoIkwrmruRVXAFlZIav1I7S52ekmGMdfjFPVKefM8P1eUMIJBhnvjUzzeellfiCDP8dt4KLUV/yOSEYxI0PEbe/s3wto5tj/VCbyVlRgnKheqVxQE6x4ksvnhPN0Wv6ytSBer3RciSVeNYMqNeGvZrJKloEvuBm0ygSI3lM6fpq0Tqbfji2m6MvqY2AoNzaUwywAjdd7ytsyWF3UUUrwUOC461i5SQjJ7i4+RitcKTnTrjWHH35XDpT7hqfWN7IWRHoriAKVI481ozaHD2UoNYWN8geUIVeYVXKUvvuL3YWooRsgx+Kiq+4p/+0EPXUlF71olKxMZSgRgqL2mJC17QAGyDzfSJPaMWAWcvnL7SqVGzpTzn5Rx0q8RabDFUhYiHaIIfm7yXZokdPnw8Y99+0aXbraOy1hYUe5oErTF8CRY+sDoRo0Mx30qKAriGqE1wJBMuIhnsRKNYH6oy6QhnvbFqxp37GmpMvLPSvqKYrfMXadOMSfUXn3OvUgQK6KEkdn+Id4hB9jUdf+RWPtH2EwZbGCMSVg7/mt0WzW+tP0M1vfsX3CRFc6C/xo+RQOuJEWYnfdUyCxsPzelTRberdX19XjoIjBFdWM8NYRF3qwstLbDDkTcM5NRk+l225cpT0cma9WparSop9OvHayTQYgvCaxkG/F8MFa8MINYiS9nMl+DdselfN8Uj/hmzwRULAkrD2O6/x2PyGt8aLmqdTXgw3yBFOARAdLWowPZL/Bq+ZrlnMqxEnT4UV8bVctA6Q8umzNVM8zUkyprepCC4m/5ypE5a9T629mOTSWBLahDohQr27n9YFn+Z9jEDILtdy4D5lQSxTVcOb4zIlejSN2LPglz6/ojAbN1IgAXGrptxvd4RHlsvCuTEPCHsLftx4G6GgmyCXEtUDSvB5z819HSabYCFRKewP4ZyJIgMxGk+ZbJ4chzLHcEVX88olEfR7fPnQ8t/flh7DcIbQLraeWK13d400qIvT4EKbgD5k+pujbxLBOOOaInWsTVV11kQlX6yOfcwxoOV9qpaY0tdQxUs1ZXVR4ZECvPtmQzu+BDiZZoHCY976lJ9WB9gEGKsUXm3Qf0anJeWN5S1wG6xBr0xovso0xV0hJNsCQdSH2GK71sHAHLlcZaEVLbN8radsS3D2xfwhrbS1XpbboGiu+qKmD6nLrjDdKMpDS1ioZikRA6q+mvzksk1KivWv6NB1BXtUqSf3xDT+jctbBQAzEUDUpmbHKBpIyrQZq00Ig7QwQDOfqaD4UPMZ/TB/xNXRtBpIa7yJpnZtwsuPJXbmK3TSbo6RoYvaVuWD24/qNZGzFnOMDBNt+m/YI3PeHS0nrCPDXf9MdzwECOc9vLAYkvGp/YddLvJZfgoJVuRqV0dTO8SK3r8IUjT7+4w9Ch2u9LN4uD1DWXqUrWPCNmihdkPMRVHKN1HyPuHqnakGftB0ffbRdHFSkHCvcuTMK+3hujaAtN13cLeNTDyINfI+uDX2D86aMMl6R1zodjaOE6PhZ4cQxJOTN6BqXYxXkAwcP9Jp5kM8IGtogXImHlMZIfXV8BaIyXk5597t1gghMA3RrL3xBBca4EcFUNeXVlogb5YDg3k30UJd1wacsEfyVQUzUKdRJbTmFJGMf6zZOl91VWUsLk/1HFBa9WZqsSvmUilz5uBQdpzuDR5urrPuIavxTttLFEXrlDDJ6bVo1DtKnhwpFvHnxtv7/XbsIP1vYLO8LgmthXoVA7Ja6U7JEme1EeG25W06nOWmrEyjob3qUJfz+CTvYhQEhIhYx5oKtpRBRmhXLnRnSPTyrWJDTJx2rm1Cc+TsIaaGM3vUp/nKbvuJgBbn68nwCxGTJ2gGOATDTlGv3mhdAQdlaB657A2yAQ7EkBGPeg+FgCQdGpahUQahJ0K65ntQhmMVHTI0wEEZEjN5/aArBm+fIcPuKBkWlILXVhmiCpwBsf/XrVfD1hG2SHHZsU/DMmTMnqfannIbhaG1ovPkw8+2GYqa8eGwJ/Spd119ylpkzRLxm36bbfe+G+FEOHwkqOKHw0j3W7SE7UrYuqOkheFwd5QEbVd42LqjRH/4cch7ZrydvlaErTtKdKUyhr4rSMhBCm+ztVyclC6bjfueNAITkiauCzaKwxCW7uxSn9BxrJVO3o1875p8b94D9u4oGf/uvBCr/mHzxt9E7JX9+w/lCi7dKrVQIQj6xrjDUiwCYrtWXF6viDjSPaTh/WOOI4TcrgenrHQI4EgDtIKVu2RPmfO4wJaTSjb1hRtvs/UqVQirLd0HvMl3aboLRqoPXdBQt/SN2+PHxcTwjYnhz2Ji+MbE8GcxMXxjYviz8HrGS/8HDNEMMXI8UKFN/J2rZZTAI+NUfWk0mm/dHXvs25yRMxfYT9FNkT42sI5j+/IAe/C3dLMKYIFjdN8qz7omNaK/CF/KOigO/cpnq/jvz6QVQiE/xlVB+Jlgss53FHodkDSC1ZrZY9eMotkK1lvAcvWOjkGkC47VjqIB6RKk30GQweOWgFQfHHN30ePBaPb9awAN4QZ5nFNmjnCf5/tvXlM5YcKECRMmTJgwYcKECRMmTJgwYcIEEv4DPSG7OnEcu/sAAAAASUVORK5CYII=" parent="1" vertex="1">
          <mxGeometry x="530" y="21.2" width="65" height="65" as="geometry" />
        </mxCell>
        <mxCell id="ljl5ft7ZTBluvvlXeNtD-10" style="edgeStyle=orthogonalEdgeStyle;rounded=0;orthogonalLoop=1;jettySize=auto;html=1;strokeWidth=5;strokeColor=#3399FF;" parent="1" source="ljl5ft7ZTBluvvlXeNtD-4" target="ljl5ft7ZTBluvvlXeNtD-8" edge="1">
          <mxGeometry relative="1" as="geometry">
            <Array as="points">
              <mxPoint x="250" y="140" />
              <mxPoint x="250" y="115" />
            </Array>
          </mxGeometry>
        </mxCell>
        <mxCell id="ljl5ft7ZTBluvvlXeNtD-4" value="" style="shape=image;verticalLabelPosition=bottom;verticalAlign=top;imageAspect=0;aspect=fixed;image=data:image/jpeg,/9j/4AAQSkZJRgABAQAAAQABAAD/2wBDAAsJCQcJCQcJCQkJCwkJCQkJCQsJCwsMCwsLDA0QDBEODQ4MEhkSJRodJR0ZHxwpKRYlNzU2GioyPi0pMBk7IRP/2wBDAQcICAsJCxULCxUsHRkdLCwsLCwsLCwsLCwsLCwsLCwsLCwsLCwsLCwsLCwsLCwsLCwsLCwsLCwsLCwsLCwsLCz/wAARCABiAXUDASIAAhEBAxEB/8QAHAABAAICAwEAAAAAAAAAAAAAAAYHBAgBAgUD/8QAUhAAAQQBAQQFBwUMBgYLAAAAAQACAwQRBQYSITEHE0FRcRQiMjZhgZEjdLGzwTM1QlJyc3WCobTR8BWFkpOy4RYXJGKUoiU0RlNUVWPS09Tx/8QAGwEBAAMAAwEAAAAAAAAAAAAAAAQFBgECAwf/xAAuEQACAgIABAQEBgMAAAAAAAAAAQIDBBEFEiExEyJBcTIzUWEUNIGRsdEGofD/2gAMAwEAAhEDEQA/ALbREQBERAcHko3rOuyQSPp0y0SN82aUgO3XcRuMB4ZHaVJTwx4hVpNvuszdd6TrDutzz4v84/BQc22VcEo+pd8Gxa77JStW1Fb0GTzxy+UMcRIHZ38A+dn2jGVJKO0zTiK+3BGB10Q4frt/gvbbDQFMRtZF5L1XDIG5uY5kqvXbge/c4sBcGZ5lucBQJqeJpxlvZdUyo4tzQshpx7P/AL+CyYZYZ2NlikY+Nw4OYcgr6BVxVuXab+srzOYTzbnLXAdjmngVKKO0dWYNjuN6iQ8Os5wn2k9inU5sLOkujKbM4Ldj+avzL7d/2JAEXDHMe1rmOa5pGQ5pBBHsIQkNBcSAAMkngB4kqeUevQLpLJFDG6SV7I2NHFzyAB7yvFv7R1K29HVAsTDhvZPUtPiOJ9yi1u7duv37Mpfj0W8mM9jWjgP5yoN2bCvpHqy7w+D3ZHmn5Y/7/QkF/aVrcx6ewOIyOvlad39RnP4qNPfPYkkkfvSSOO9I4NzjPadwYXTjkY9ym+gCr/RtYRbm9h3XYwXdZvHO8oEXPLnqctIvrlVwipSqhtvps8DR9YlpPjrykOqudg8BmMuPpAjs71Nm4IyCMHBCr/WfJhqF4Qbhj3gDuY3S/cG9jHtypzSDxVqB/piCEPz37oUzCnLcq296KbjFNbjXkQWnPujIREViZ8IuUQHCIiAIqa25202w0fabU9P07UuoqQspmKIV6sm6ZK0cjsuljLuJJPNRodI/SDkf9MH/AIOh/wDCgNikXh7I3rupbOaHeuyma1YrufNIWsaXuEjm5wwBvZ3L3O5AEWv2odIW3sF/UYYtX3Y4rdmKMCpROGMkc0DjFlY7ekbpAJAOsHBIB/2SjyyP/RQGxKLpCXOhhc45c6ONxPDiS0Engu6AIiIAiLlAcIiIAiIgCIiAIiIAiIgCIiAIiIAiIgODyKh20lAw2G3IwBHZOJcDgJQOP9r7CplhYt2rHcrT134G+07rvxHji1w8FHyKlbBxJ2BlPFvVnp2fsV51s271fWSdX+Jvu3fhyXXxXeSKSGSWKQESRvcx4PYQuizcubepeh9Ggo63D1CIi4PQ+0Nu5XHyFiaMdzHkD4cv2Lma3csDE1maQYxh73EfDkvgi7c8ta309zx8Gvm5uVb+o4/x9qJw7Rn7VlijNJC6zW+WiZ91az7tEe5zO72hFBt6RzO2NfxdEYi5DpG53XObvcHbpIyO47pXXPdxXPE8hk5AA7Sc8AFwuZdUdpaa83Y9LRKHl11m+3MFbdllzyJzlrPefoU8C87RqAoUo43AddJ8rOe97hy9w4e72r0sLQ4tPhQ692fPuKZf4q9tfDHogiIpZVhEyEQBERAa79JTs7Z66PxW6e0f8FA77VDxzCl/ST66bQ+On/uFdRAcwgNk9g/VDZr5o/62RSXuUa2D9UNmvmj/AK16kvcgNU9V++erfP7n1zliN9JviPpWXqv3z1b5/c+ucsRvpN8R9KA2zg+4V/zUX+EL6L5wfcIPzMf+EL6fFAET4ogCIiALFt6jpWnhrr9+nUa70TbsRQA+HWOCivSXPYr7LWpK80sUnllJu/C98bt0yHIywg4WvhcXElxJJJJJ4kk8cklAbPadtPs1q92XT9M1GK3airvtSNhbKWCJr2Rl3WlvVni4cA7tXsqjOiH1l1H9B2f3qqrzQBERAEREAREQBERAETgnBAETgnBAETgiAim0tDdMd6McHERT4Hbza4/QVG1ZViCOzDNBIMslY5jvZkYyFW8jHRSSxu9KN743dnFpLSqLOpUZqS9TbcDynbU6Zd4/wdURfatA+1Zr12cDNI1mfxW8yVAinJ6NBOahFyfodYYLNlxZXhlmcOYibnHieX7V9J6V6qM2K00bfxnNyz+03IU8ghqafVDG7kcEDC57jgD2uce9eRNtLp+TGyrJNESQ5zi1ocMdjXZyrKWHXXHdktMzdfGMi+xqivcV+/8AREsrJo3JqFhliLJxwkYeT2Hm3+C4ueROmc+nlsEgDxG8YdETzYezh2cVjqvXNXLyvsX2o5FWpLo+6JZqGkVdRhbeobrZXsEu6MBkwIzxxyd7f/1ebs/pxsXHzTNIipO9F3bPyAI/3efwWZs1fHylCU896Svnl3vZ9o/yUmZHGwuLWNaXOLnYGN5xxkn2q4rprvcbl+vuY/Iy8jCU8ST39H9jsBhconBWRnwuCcHH7VzwXm65qsGiaVqWqzN3mUoDIGcuskJDI2ZHLecQM47UB421m2mlbLxiNzfKtTlYHwU2ODd1pyBLO/Bw3hw4Enu7W01qm3m2eqyOdJqk9WLLt2DTXvqRNB/BzEd8j8p5XhahqF3VLtzULshltWpXSzPPLJ4BrR2ADAaOwADsWPFFNPJFFFG+SWV7Y4o42lz3ved1rWtbxJJ4BAfZ9/UZHFz7lt7jzc+eVxPiScrJr69tJUAFXWNUgaMebDdssbw72tfhTfTuiPX7MDZb9+pRe9rXCAMfZkZnmJC0tYD4OcvQf0NSADc2iYXcMh2nFo+IsE/sQFX3r97UrU129PJYtTdX1s0mN5+4xsbc4AHAAD3LGHML1Nf0afQNWv6TPNHNJUMIdJEHBj+thZOMB3Hk4AryxzHiEBsnsJkbI7NAjB8kcePcZXkFSXuUf2L9Vdmf0dB9qkHcgNU9V++erfP7n1zlit9JviOfisrVfvnq3z+59c5Yrd4EFvMEY8c8EBfm2O28OzNKrUpCOfWLFeJ0bH8Y6sRaPlpmg5yfwRn28hh9NXtqNq9RdI65rOoyCQ5dG2w+KD3QxFsY9zQpbH0Z7das91/UbtGOe0RLM63Zlmsk4GC7qY3NPDH4ayJOh7XA15j1bTnPAy1r2WGNJ7i4Ndj4FAV0L2otcHNuWmuHItnlBHgQ7KkWj7fbYaTMxx1Ce9Xy0SVtRkfYY9g7GvkJe32Yd7jyXl65s7rWztplXU4BGZGufBLG4PhnY04Lo3ju7QQCMjhx4+QgNpND1mjr+m1NTpkiKcEPjfjrIZWHdfE/HaD8Rx7Vj7W3rGm7N69dryuingpu6mRhAcyR7mxtIJ4ZyVWvRDqcjL+r6O4nqbFYX4QTwbNA5sbse1wcM/kKytq9Jua5oGqaVSfAyxbbXbG+y6RsQEdiOV28Y2udyaceb/kBr5qG1G1Gq1nU9Q1SzZrOfHI6KUs3S5nFp4NB4LxlMNe6PtodndOfqV2zpkkDJYoi2rLZdLvSndBAkga3HfxUPQGdpmrato88lnTLctWeSF0D5Id3eMTnNeW+cDwyAfcvW/0526/89u/GP/2rF2c2c1Hae9NQoS1Ipoqr7bnXHysjMbJI4iAYo3nOXDs/zlf+qHa//wAdof8Af3f/AKqAydgNotrdZ2kp1rur3J6sUFqzPE8s3Hhke60Ow3vIV1KvNg9h9X2Xvajc1GxQlM9RtaEU3zvLcyCR5f1sTMchjGf42HwQBE4JwQBE4JwQBE4IgCIiAIiIAiLjigDjjieQ4k9wHFVtZkEti1K3lJNK8eDnEhS/aC+atTqI3fLWg5nDmyLk5w9vEAf5KFDt9qpuIWJtQXoa/gGO4xlc/Xoc9yzNMnZW1CjM/wBASbrj3B4LM/tWHw/ntRVsXyyUvVGktrVsHW/XZL9ppXijXZGfNmnG+QeDg1uQPoPuUQ/nKzHahZkqeRTYliaWuiL89ZE5vLDu5Ya98m1XT50QeG40sWl1S+vf6j+GERFGLM7wyywSwzRHdkic17D7Qc8f57VYdK1HcrQWY+UrQSDza7kWnwVcr39nL5gsOpyO+SskuiJ/BmHZ7x9HtU/Cu5J8r7Mz/G8PxqvEiusf4Jgi4zlcq+MOFXHS5cMOg6fUaSDc1FrnYJGWQRucQfeW/BWOqp6ZP+q7MDsM+oH/AJIUBTqsPon0yK5r1q7MwPbpdMyQ54hlid4ja7B7m7+Pbx7FXitzoZ/7W/1P8P8Aa0BbmAiIgNdukn102h/q/wDcK6iA5jxCl3ST66bQf1d+4V1ERzHiEBsxsX6qbM/o6D7VIFH9i/VTZn9HQfapB3IDVPVfvnq3z+59c5YrPSb+UPpCytV++erfP7n1zliN9JviPpQG2cH3Cv8Amov8IX0Xzg+4V/zUX+EL6ICCdKNGOzsvNZLQZNPt1bEbu0B7uoePfkfBUEtjukFzG7H7Q7wB3oq7W5x6RsR4K1xQEu6N5THtloIzhsnl0TvbvU5sD44WxS106OYxJtns+CDhpuyHHZuU53DPvwti0BB+lH1TtfPaH1hWv62A6UfVO189ofWFa/oCxeiH1l1H9B2f3qqrzVGdEHrLqP6Ds/vVVXmgCIiAIiIAiIgCIiAIiIDlFwiALq9zWNc55w1gLnE8gAMkrkrwNpL3UwNpsd8pZ86X2QjsPiftXnbYq4OTPfGx5ZFsao+pG9SuPvW5pzncJ3Yhn0Y2+j/H3rEQHIzjHPKLMTk5y3I+m1Vxqgq49kZNJteWUVrBLY5yGskHOKU8GuPsPIpco26EhjnbwPBkjQTHIO9p+xYx+kYx396lek362pQf0ffax8jWYZ1nHrmAc8n8IdvxUiiEbfLLoyuzLrcV+PFbh6r6fdEU/niikV/ZuWPeloO6xnMwyHzwO5jjwPsz8So85r2Ocx7XMe30mvBBHiDxXnbTOp+ZEnGzacqPNW/7C4RF4EvYXIc5pa5pIc0hzXA4IIOQQuE/b4Ln2DSa0WBpd1t+pFPwEn3OZo7JG8/jzHis8KDaDfFS51TziG0Qxx7GycmO+xTgLR4t3iw2+5864niPFvcV2fb2OVVfTGxxpbNyYOGWrrCezL443D6CrUUM6SdKk1PZe4+JhfNpssWota1oJdHGCyXjnkGkuP5KlFaa9KyeiPUG19a1Og5wH9IUWyRg83S1X726P1XPPuVbLIpXLen2qt2pK6K1WkbLBI3GWvby4HhjsIQG2CKn6PTFM2KNmo6KySUDD5adkxMd4RSMdj+8X1tdMeWubS0LzyDuyWrnmtPtjjjBP9sICI9JPrptB/V37hXUQHMeIXp67qmoa1qdvVL8UcVm4IJHMiY+OMMbCyOMsa8l2C0DBycrzBzHiEBsxsX6qbM/o6D7VIe5R7Yv1U2Z/R0H2qQdyA1T1X756t8/ufXOWI30m+I+lZeq/fPVvn9z65yxGnBB54IPw4oDbOD7hX/NR/4Qvqqdg6Y5o4o2S7Pxvc1obvRag6NpwMDzXQOP7V3l6ZZSx4h2eYyTHmOl1AyMB9rGwNJ/tBAe/wBKt2GDZttRzwJr92BkUeRvPjgPXPdjngeaD4jvVDL1dc17Vtob0l/UpQ6QjcijjBbDBEDkRwtJOB7yT2kleUgLF6JaTp9ordwtPV0NOlO8OQmneyNoPiN/4K9FBejXQH6NoflNhm5c1dzLUjXDD2V2tIhY724Jd+vhTlAQfpR9U7Xz2h9YVr+tiOkepJa2S1bq+LqzqtsjnlkUo3vgCT7lrugLE6InAbS3wSAXaJaDc8yfKarsD4K9Fq1oesXtB1OpqlLdM1cuyyTJjlje0tfG8DjgjPhz7FYcnTHc6sCLQa7ZccXyXZHsz+QImn/mQFxIqs2P272l2l2hrUrLKUFNtW3PNHUhdl+43zSXyvc7gSORCtMZwEAREQHK4REAREQBERAEREAKrzUJpLV+09xPnzmNnexgduN+AVhHkoPrmny1bcswBNad7ntcM4Y53FzSfoVfnxk4Jrsu5f8AApwjdJS6Nroe+dntJEHVNiw/cx1wceszj0sk4ULcN1zm5B3SRkcjg4yFn/01q3UOrifDN3cLt1u+W4xjeXxpafqF8gV4SWA4dNJlsTf1jzPgq66UL9RpXUvsGq7EU55c1p/cxfHlhejp2k6ncdHLEDDEHBwsSbzcY7Y2jzj+xSKhs9Tq7sk58onGDl4+Taf91h4fFe2BjgOAUqnA7SsK3N46mnDHW/u/6PnCySOKKN8hlexjWukcAC8j8IhvBfC5p1G83dsRNcR6L2+a9vg4cVmBFauMZLT7GXjZOEueL0yGXdnLtfefVPlEXE7o4TAeHI+7C8NzXNcWvBa5pIc0gggjsIKs5YVzTKF4fLxAuxgSM82QeDhxVbdgRfWvoaLE49OHS9b+/qV9/PDmpbpeiaZJSrzWIWyyzxiQveXebnsZg8MLzb2z12tvSVz5RCMkgDErR+T2+5YVbVdUpxOghmLWAkBrmBzmHtxvDIUOpLHm/GRbZUnxClfhJrez56jWjqXrVaN3mRvAa7OSA5ofjPszj3Kd6dLJNQoSv9OStC9/iWAlQWpUt6paMbd5xe8uszOyQxpPnEnlk9isGKNsUccTBhkbWsaO4NGApmDF80ppaTKrjc0oV0ye5rud11e1rg5rgHNc0tc1wy0gjBBHcuyK0MyUdtb0barRsWbuhV33NOkc6UVoRvWqmTnq2x+k5v4uMnvHDLq8lhngkfFPHJFKwkPjlY5j2nuLXAH9i20XV8cUmBIxjwDkB7WuA8MhAamRxyyvbHEx73uOGsjaXOce4AcVYuxXR5e1G0y/r9Setp1dwc2rZY+Ga48cmljsPEY5kkDPId4u5rWMAaxoa0cg0AD4BdkBSfS5pzK+p6NfjYGx2qJqlrWhrQ+o/hwHscAPyVWY5jxW2zo4pABIxrwDkB7Q7j7108mqf9xD/ds/ggPE2L9VNmf0dB9qkHcuGta0BrQA0DAAGAB7AFygNZY9E1jXtd1SppdZ08nl9oyP9GKFhmf58sh80D6eQBPBfe9sLtxQz1mi25WBxaH0mtth2PwgK5c7Hi0LZFjI2b24xrd45dutAye84XZAamT1rVZ5js15oJBwLJ43xvHiHgFfMcSAO3lj7FtueIIIyDwIPLC6MihjJLI42E8CWMa0keICA1ho7NbU6k6MUtH1CUSHzZPJ5GQ++aQCMe9ysrZPovdWmr6htH1T3xubJDp0REjA8AEGzJ6Jx+KMjhzI4K10QDHsREQHynhhswT152CSGeOSGZhzh8cjS1zTjjxC172n2E1/QbU7oKti7pZc99e1XjdKWR5zu2WxjLXDhkkYPYexuxKcUBqOeHDt5FfSGGxYeI4IpZZDyZExz3H9VoJW2D4YZCDJFG8gYy9jXEDngEhdwAAAAABwAAwAPYEBUXRboGs0dT1HUNQ063Ui8gNeB1yJ8Je98rHO3WSAO5DnhW8ERAEREAREQBERAEREAREQHB7PFY9wNNW0CAR1Uh4jPEAoi6z+FnrR81e6K47vEqyKgArVgAAOqZwAwOSIqrB+Jmq/yL5VfufdERWq7mQOQiIuwOOxcIi5C7HPeoRtGANSkwAPkIzw4cTlEVfnfLL7gX5l+zJFoIA02uQBkgEkDieA5r1RzKIpVPy0Vuf+an7nKIi9SGEREAREQBERAEREAREQBERAEREAREQBERAEREAREQBERAEREAREQH//2Q==" parent="1" vertex="1">
          <mxGeometry x="120" y="119.71000000000001" width="113" height="29.69" as="geometry" />
        </mxCell>
        <mxCell id="ljl5ft7ZTBluvvlXeNtD-5" value="Log Telemetry" style="image;aspect=fixed;perimeter=ellipsePerimeter;html=1;align=center;shadow=0;dashed=0;spacingTop=3;image=img/lib/active_directory/database.svg;" parent="1" vertex="1">
          <mxGeometry x="370" y="95.6" width="60" height="44.4" as="geometry" />
        </mxCell>
        <mxCell id="ljl5ft7ZTBluvvlXeNtD-11" style="edgeStyle=orthogonalEdgeStyle;rounded=0;orthogonalLoop=1;jettySize=auto;html=1;strokeColor=#3399FF;strokeWidth=5;" parent="1" source="ljl5ft7ZTBluvvlXeNtD-6" target="ljl5ft7ZTBluvvlXeNtD-8" edge="1">
          <mxGeometry relative="1" as="geometry">
            <Array as="points">
              <mxPoint x="250" y="225" />
              <mxPoint x="250" y="115" />
            </Array>
          </mxGeometry>
        </mxCell>
        <mxCell id="ljl5ft7ZTBluvvlXeNtD-12" value="&lt;font color=&quot;#007fff&quot;&gt;Telemetry&lt;/font&gt;" style="edgeLabel;html=1;align=center;verticalAlign=middle;resizable=0;points=[];" parent="ljl5ft7ZTBluvvlXeNtD-11" vertex="1" connectable="0">
          <mxGeometry x="0.5893" relative="1" as="geometry">
            <mxPoint as="offset" />
          </mxGeometry>
        </mxCell>
        <mxCell id="ljl5ft7ZTBluvvlXeNtD-6" value="" style="shape=image;verticalLabelPosition=bottom;verticalAlign=top;imageAspect=0;aspect=fixed;image=data:image/jpeg,/9j/4AAQSkZJRgABAQAAAQABAAD/2wBDAAsJCQcJCQcJCQkJCwkJCQkJCQsJCwsMCwsLDA0QDBEODQ4MEhkSJRodJR0ZHxwpKRYlNzU2GioyPi0pMBk7IRP/2wBDAQcICAsJCxULCxUsHRkdLCwsLCwsLCwsLCwsLCwsLCwsLCwsLCwsLCwsLCwsLCwsLCwsLCwsLCwsLCwsLCwsLCz/wAARCAEKAaIDASIAAhEBAxEB/8QAGwABAQADAQEBAAAAAAAAAAAAAAYEBQcBAwL/xABDEAEAAQMDAgIFBwgHCQAAAAAAAQIDBAUGERIhEzEHFFFhcRUiIzJBgbM1NkJSdYKRkhYzNJOytNEkRGJ0doShsfH/xAAWAQEBAQAAAAAAAAAAAAAAAAAAAQL/xAAVEQEBAAAAAAAAAAAAAAAAAAAAAf/aAAwDAQACEQMRAD8A5cA0AAAAAAAAAAAAAAAAAAAAAAAAAAAAAAAAAAAAAAAAAAAAAAAAAAAAAAAAAAAAAAAAAAAAAAAAAAAAAAAAAAAAAAAAAAAAAAAAAAAAAAAAAAAAAAAAAAAAAAAAAAAAAAAAAAAAAAAAAAAAAAAAAAAAAAAAAAAAAAAAAAAAAAAAAAAAAAAAAAAAAAAAAAAAAAAAAAAAAAAAAAAAAAAAAAAAAAAAAAAAAAAAAAAAAAAAAAAAAAAAAAAAAAAAAAAAAAAAAAAAAAAAAAAAAAAAAAAAAAAAAAAAAAAAAAAAAAAAAAAAAAAAAAAAAAAAAAAAAAAAAAAAAAAAAAAAAAAAAAAAAAAAAAAAAAAAAAAAAAAAAAAAAAAAAAAAAAAAAAAAAAAAAAAAAAAAAM3SatJo1PT7urxdr021ei7lW7FEV13aaO9NviZiOKp457gqtsej7UNbsU6jqWRVp2l1R4luZpj1i/biOqblPX82mn3y1u4bez7V63pe2MXKzL8XoouZ92/cvV5FflFrGtUcUz8elutd3Zru88u1oO38a/bwbsxTFijii7kUR+nk1U9qbdP2xzx8fsptN0bbHo70/wCVtYu28nWLtM025piJr6uOZs4Vufs/Wq/9c8SELPo833Fnx/ky3/V+J4cZVib3lz0xR1efuS1VNdFVdFdNVNdFU0101RMVU1RPExMT9roNrd/pQ3Dl5t3QLNyMa1NNM2caxjV27ET3iKr2RT3r9vdMbh0/ddjInUdwYddi/qF2r6SqnHpi9copjqnpx5458uewNH7O0zM9o4iapn7o7veK/wBS7/d1/wCjM0zU83R86xqOHNqMmxFyLc3aKblMRcom3PNNXZ07ae79wavj7vu5tWJVXpek15mJ4eNboiLtNF2ea4jz+rAOS8VxHei5HbzqoriP4zB/89syodW3luTXMKrAz68Sceu5avTFnGt2quu33j50d2o0z8qaN+0cD8egGJMTHaaaon7YqiaZj4xPc9kcTMz5cRNUz90d1X6Q4iN361ERER04XaI4/wB1tvx6P4id4aBExExzm9pjmP7Ld9oJjiv9S5/d1/6POfOPKY84mJiY+MT3XWZ6Rd4WczOs27mBFFnKyLVuJxLUzFNuuaI7smnMtb40LcVzPwsWzrmhY0Z9jNxKIt+PYiKqqqLkfuz/AOP3g54985jiJmZ8oppmqf4Q8X2ypx9A0fcO8cu1Td8Oq1pen2q44m7VVXRN2aefu/lkEFMTEzExMTHaYntMfGHiu39p1jG1qnUcSKfUNdx7epY9VHHT13IjriOO3n8795Iz5T8Ae9+InpmInymaZiKvfEy8XG8IiNuejLiIjnSLnPERHP0eOhwAAAAAAAAAAAAAAAAAAAAAAAAAAAAAAAAAAG/2nkbXxdVuXNx49N/AnEu0UU12ar1NOR10TTPTT7upoHtMxFVMzTTXETTVNFXPTVETz0zx37g67/Tb0d6DiZle29Po9dvRERboxq8eiuY8pvXK456Y9ie0bb25N/6hVrGs371vTuviq/xFM3aYn+owaJ7RRH2z/ils9Lj0J5OLiZOVZtYeVPTVexcm9nV9FymOJpniZpmn2PlubfWTqVdvbu07d2nGuzGLF7Fomm9lR9XwsaimOaaPfxH3R5wbLXt6aNtXHtaDtTHxqr2PPRcuRT149irnvT2nmu5P2zz/AB8qYvdOuby1OzptncOJ6tR1V5WHFeNOPXXE0xRNXzp54Weg7T0LZ+NTuDdV/HnOoia8exMxXbxq47xTZo867vv+z7upz3c2v5O49WyNQu01W7PEWMOzM8+Dj096Yn/in60++SDSrv0f/wBi9In/AE/d/DvIRvtv7gp0PH3HY9UnInWNOqwYnxfDiz1UV0dUx0zz9b3KNDHlHwhmaZ+VNG/aWB+PQw/Y+2JfjGysLJmnrjGyrGRNHPHV4VyLnTz7+AU3pD/O/XPhhf5W0+fo+/PHb/8A3v8AlbrW7i1j5e1jO1X1eceMqLMRam54k0eFbpt/X6Y9nsebe1aNC1jA1abHrE4nj/RRc8OavFt1Wvr9M+32AxNR/KOq/wDPZn41St2RPhaT6R8muJpsRoVVibvHzPFqpvRTRE+3vDyvdOxrtdyu5sXEquV1VV1z69VEzVVPVMzxaYWqbozNYxbGhaRpVjTdOrvRNODp1M3LuVenvEV1U0xM/wAv+EEvRbu3arVm1TNV29Xbs2qY86rlcxTTS65uHaWq3dG2xt7TcvS7ONptnxs31zJ8Ku7l1x3r6aYnt3qmPj7nPtM9a2zq+malq+j5vRjVV37OPk014viXaY6aaoruUTHzeephaxqd/WtVz9TvR9Jm35rooierop+pbtUz7o4iAdF1Xbuo17Doxsy7h5Gfty7cyMarBveP/sMzxXRVxETzEc/yfx5XPlPwUW3dbydpalqMZeDXdov49zA1DBuV+DVM8/pTxPePnR5fpJ67Nqbl2bUdFqu5cm1RVPM00TPann3At94/m56Mv2RX+HjodbUby27d03RNO1Xa9vUKtKxKMWzcuZs0doiIqmmimjtzxS12sajoGo6bNek7Uo0zwsy1bu51rJqvU9U0V1eBPNNPn5/ugmgAAAAAAAAAAAAAAAAAAAAAAAAAAAAAAAAAAAGdp2rarpFy7e03JnGvXbfhV3bdFqbnR7IqrpmY+5ggMjMztRz7s3s7LyMm75RXk3arlUfCapY4AAAAAAApsGztq/o+nxm9E5dq5l9dvGvVUZt2u5k2KbVmLURxMVU9ffntw+mHa0rQt5aJZ9bp9W0zMsxnZldc+FN2KaqrlUTHlHeKfuSoC9santXJtaFZueFRg0alq2RmYmfkXMm5GfXYmjFvzcu0zHgT26o6O0+cVE3ttRf1Ccerb1vUYtaN1XcnovYNdNuqurLnHqi1FuLs/M56KI8vmoIB0HIzNlZubrmTl14VdyrWNRw8e5NMzF7F1OqjpzZnjn6Divj4vzjXtmesZFFqNEoxcfU/V8+rPs83MrRrGPRZorwY6ap8SuYrrnp4nmaUAAtOvZ3yVTTPqHqPyZaibVNETrs6t61E3KpqiOejo6v0uOPe/W48rSZ0fPxcLI0aaLm4LGTgWNLp6a406nHuW6Jvx0RPVHaJ6u6JAAAAAAAAAAAAAAAAAAAAAAAAAAAAAAAAAAAAAAAAAAAAAAAAAAAAAAAAAAAAAAAAAAAAAAAAAAAAAAAAAAAAAAAAAAAAAAAAAAAAAAAAAAAAAAAAAAAAAAAAAAAAAAAAAAAAAAAAAAAAAAAAAAAAAAAAAAAAAAAAAAAAAAAAAAAAAAAAAAAAAAAAAAAAAAAAAAAAAAAAAAAAAAAAAAAAAAAAAAAAAAAAAAAAAAAAAAAAAAAAAAAAAAAAAAAAAAAAAAAAAAAAAAAAAAAAAAAAAAAAAAAAAAAAAAAAAAAAAAAAAAAAAAAAAAAAAAAAAAAAAAAAAAAAAAAAAAAAAAAAAAAAFAAAAAAAAAAAAAAAAAAAAAAAAAAAAAAAAAAAAAAAAAAAAAAAAAAAAH//2Q==;clipPath=inset(35.34% 27.33% 36.39% 29.33%);" parent="1" vertex="1">
          <mxGeometry x="127.5" y="203.29000000000002" width="98" height="40.71" as="geometry" />
        </mxCell>
        <mxCell id="ljl5ft7ZTBluvvlXeNtD-15" style="edgeStyle=orthogonalEdgeStyle;rounded=0;orthogonalLoop=1;jettySize=auto;html=1;strokeWidth=3;strokeColor=#007FFF;" parent="1" source="ljl5ft7ZTBluvvlXeNtD-7" target="ljl5ft7ZTBluvvlXeNtD-13" edge="1">
          <mxGeometry relative="1" as="geometry" />
        </mxCell>
        <mxCell id="ljl5ft7ZTBluvvlXeNtD-7" value="Dashboards" style="image;aspect=fixed;html=1;points=[];align=center;fontSize=12;image=img/lib/azure2/other/Azure_Monitor_Dashboard.svg;" parent="1" vertex="1">
          <mxGeometry x="490" y="86.2" width="68" height="63.2" as="geometry" />
        </mxCell>
        <mxCell id="ljl5ft7ZTBluvvlXeNtD-13" value="users" style="sketch=0;outlineConnect=0;strokeColor=#6c8ebf;fillColor=#566CFC;dashed=0;verticalLabelPosition=bottom;verticalAlign=top;align=center;html=1;fontSize=12;fontStyle=0;aspect=fixed;shape=mxgraph.aws4.illustration_users;pointerEvents=1;gradientColor=default;" parent="1" vertex="1">
          <mxGeometry x="640" y="228.91000000000003" width="50" height="50" as="geometry" />
        </mxCell>
        <mxCell id="ljl5ft7ZTBluvvlXeNtD-14" value="Pipeline &#xa;Extract " style="shape=image;verticalLabelPosition=bottom;verticalAlign=top;imageAspect=0;aspect=fixed;image=data:image/png,iVBORw0KGgoAAAANSUhEUgAAAOEAAADhCAMAAAAJbSJIAAAAyVBMVEX///8pY+EqZOEtZuEoYuCUsvIsZeErZOEQR70qY+GRsPIWS79PgvAPRr0TSb7W4Phzm/Lo7vwHVt6HqfG1w+gAOrrS2/EAL7cANLhOfOhfjfKZtvNIfO0iX+C4y/aLrPEAQbxolPHQ2vcAUt4zVsEiWtTH1vl7nu03a+JTf+YATd7x9PulvPYpT7/h6Po/cOMTWt8bUsuIoutIdeOtvvGEmNcAR8nBy+p5jtQAJ7eyvuVog9WoteJXcsqVptw9X8SDmd2zx/ZZdMpIFVvjAAAKuUlEQVR4nO3cC3+ayBoHYMARwVTiZXO10xitVWOimHQ327M9e07P9/9QZ2AAuQ7vwAxM9se/rSIK8mTeGS6malqXLl26dOnSpUuXLl26dOnSpUvt7A+XYnJoW5Kbb5ujOxUV9Lpv25PO9+MUmz1xwWjZNimRw9Y1BPK8mK5KxO8rkc0XEpE6hTqciveR4Ne2YWGe5QB7Pb1tWZDLlSRgb6rITmMroQ8Gwsu2bX5esSygIsKlrE6ojNCUVqOKCCXWqBpCmTWqhvAo+lhNNeGDKxOogPBSao2qIJS3r1dEKHUcVUEodxxVQfgmdRxVQDiUO462LzysYpsCGnGyLypbrF3hUTeDbTSDO//e32jTDDeezjNjT5qZxcxgAfqaaB3kT6vCoWv6oZsfTIWTeRNm8oUhPG+x6GGbwks3s+ES0qbwDXFu7EBHCOnGhxH23fLNO8fG2Dze7Ujeehhz/GzaEx5W8K0cYPw2fpiHGW52CEObsj3hEVxtA7wde7B+FPJgcwQaWxPCaxR5vn468+fZEassPICB7n2OjzbkGAGasS3hHejnb5oGfs33+cbhtnzIaUnYnwKB234x0DOW/6TaEZLjURjwyAYS4q6M2I7wTocBe2VArxVLCrUV4Rw4zOBhKbDff96yh5s2hNBxFG8AwH5/yK7TNoSlXYcG7UDA/nzMXF8Lwu/AcRSDfB6ReXjUvHACPB7Fj7AmJMJXViM2L9wBzwswFFjSiI0LvwOHGXTPIdwwGrFp4QR6PIpnYCAhMuqiaWHZ/jmMsYU3oXdkU7zahoXQcZSrSEkYZdqsEFyjJh7zAPsPooTXv9XKO3Qc5eyGJMVH8hzC/e+L26ta+QN2wO1nyAVk7C/gwvfR4qJm4D5yVsEnLD5bAQvfb52aPgcO5BxKmYMpVDhZ1AVerNUW/lm7RGmNDqJ3HtAH5ztxQrpC8mfAIawNdIwBjTk4x/cFE8ENneDvh2gQLp16D6DwcFNXeIq/ayaZJxHvWKoXrQwovL6tK2QCs+HdHxavviGhg/iAAzzm6ogPuG0hu0ZzAr2EEWTcutAo3ICC8A0187fiGmlEyF2jJHjDQ3SLV9SIkLtGSdAdxzn+Y3GRNiOsABwMXPj+Yr612xWiSkL4WDNnjDONCKvUqBf4LrHHaMImhNV8pBGPwGve96wmbEC4riocAK8JvzIG0iaEJ06WMTCCezLYQD6aGeLzAuFto0KyxYZBt9sI/pCp4C54QF/jzQ2M9JFh4Fk5caunF0u+jWzh2g7eMsgguA1mRfON1KNgEpUSjyhabJBen/9QsvCUekvusD9DnA9NVLYGocLshY6aPhKXMdzMN1gvXQFc6HgAckNCpynJ8WcFzwVP0FeQrOsLDXwsqNR5f4cBy3MIc3IR/MuZ7d3UrlE/CO9yPs+fk4PR0grlEuYBSyKgRgOje7fpJ3+vbXaPIQ0oWSiiRkMj7u3Gs2Hf/83E2Xi3hfqkCk+mOKGPxKi33W57BpkoH2CaEAr10eheOJeRJrQ4axSBho0KkSbkHEfx3WdJxJUsId9m4Lv7T5KIK9j/x+cW8tWoB/wkiTiFfTHGWZi758/kZKfeJ/04ByiHqB9BwOCYhh6bRcdn0TGNf0eP1eizjm0b4R/D9v6R2+AhnWHY9IF3FwI9ovfYf70RLhWuw7bDn1LwpL8+O/bSnMW8Q3eo0GEeYjuJWaRG7SDRRF4M/9kzkBJLYyTWynwH2159A7chPKRGORIHAokcQVsYkPP8cFAZKJw4/S5B6KxrAAUTwU3II+Sq0SxQLPEJ/OU0PMLEW+jBPzjQJxYvwkx6sdUzFMghdNZ6nKUn7/WYWi8Afvp0ROFiWaquR6tOyrz5uq7Hf6irBzAQLiTHo/4JgLcpUWz65t4UvaGPioCfUbicnl7w/MDOeyKxEHqaw4EcbYh0aAqBGLwKVlyT66vaoEJSo7WB8J8RI2jF+S1mQKFzMVAD6Nq837UHFYI3QWqJYt4GBAvhNSoV6G4rfFkiFTrR4XVmgp5bGHWBAkqUuwcGwpvo4u9F9Pd8wTs4d4Jun0yga1b7ve79y6j0rNda2+UbwATWL9EqPTDI5Gsp8aIusHYLGtNjjV/Mn1hWiRC4gfKA6GlY3ecRr9itCBxH5QHdbd3/WXGwWERgjUrrg3jKcZhdSHQYRFgTSGvBWj0wRrwq6ovAcVQWED31Rfg84m1RK4L29bJK1N2K+57Z60U+ETTMSALiab0hNE28qiyUU6LG9E3wf047/MjrhoCNlAPEXCfysFzn7Bet8jaUU6LTu4lwoKYtc0bU0r2hlBbEU/i1NK683xSVKdIR+UsnghtvThnwfHOeRAGdrMRAKHxaj02QBpT2Vd3vN5lWvLAR8nX0LgqdLAb6r9Hjr0XJB+n7aBo/SWpASrzNEE82KkxxHyxepjABdbqT0QNjxOxOo5jIbsFKweBPXCrnX9m+eCpoEQnAleQGpMTMJ/tXf+UShZYoXaP8BvTzM1WoV39qy2kjQCn7wFzibbIFyazlCgys6tPtP94bAhJirC8u/u3PShOFA23k3P7WmFD7+zYF1FKFKrpEdf1kNSqMiIv/RLPiRNEtqK8vyH64UWFAXHyNzToXqmCg14CW03AbatrvhLh4SfxiVUgUXKI6cvwLmlbDQkIcvaR+c4wWqlggacCRRdO0kBAzuyevFcWWqL62ojQu1HL2v8uVUKBun6w2hXlZvok8m4g1oDrCx8+iWlBHUQ9USPjtcZxHrAK0145lKSckwHEOsQIw2QOVEfpAQqzfB1M9UBVhAEy3In8LZnqgIsIImCRWAOY1oALCGDBeqNwl6h+FqihMAM9EfuA6r0AVEKaAYaHylijpgUW+loWX9+N0PCI3sLgB2xZqz+k29IicJVowhCoizCFuvuRcgWM2IIvXvjBLnORcgWM2YAlQknD/60s8vxhXLJPER+/smJxMiWpAacLJbBjPjPXBcoJIfxTLKZDI7oENCh+YH9zFiGFbwwo1cxqhqjAiPp6LefkEaECITw1hQHyMX6EqK1RID1RISInJ4aiECGxAZYQeMT3esvoipAHlXk3kFmrP2R3K8qnoM1TH2/zRaGSNfAe99WeEslEwd6SOMC8FhboeRbFGieQ8tEYqC7WlmyXi04gvSgu1/7rZHhi2Vdhg6ft0kyot/Hl7SgGdqPNFY8ko+hN/6HdKv5OqLPx5Y1lxYvxCxSh3Mm8wVVjoARNEB3AUmk0zwiq/0kmBluXQX2vKudb7wYUhkFTbab1enwqL8aMKz0BvV14Rp7IwDqwZNYUCgWoKf/4QB1RTePi6+IcLtf2FOKKaQm3/IoyoqFCbCCtUVYXiiMoKtf1IDFFdoai+qLBQUKGqLNQmIlpRaaG2d+oTFT4D9rKvX6jNCL8dLllhfPhWvy82Ihw+MDP7xVgVKdToOpN/ZSnvZHGUNx0s1IyQnYcvrHWRnUb6iq/PzJmZe2lYfaFXqOXXfbNXSz+Q0NtplBM/tFDbL2oQP4Qw3hf/oUJYX/zQwhp98aMIvQsb1YQ31x9E6B3AVRPCvtxZAWHFvrj4SwZQjtA766/QhFKKVJKwyk7j5m8pQFlC7kJdyAJqk82MJ6xzi9SKX37ccOR/Fb4REbolXOEY7fbXHJEyinbp0qVLly5dunTp0qVLly5dPmz+Dy7cIgRZPJEYAAAAAElFTkSuQmCC" parent="1" vertex="1">
          <mxGeometry x="280" y="130" width="30" height="30" as="geometry" />
        </mxCell>
        <mxCell id="-A37LQIsE4QHnwAx1lAB-4" value="" style="shape=flexArrow;endArrow=classic;html=1;rounded=0;entryX=0.5;entryY=0;entryDx=0;entryDy=0;exitX=0.5;exitY=1;exitDx=0;exitDy=0;fillColor=#dae8fc;strokeColor=#6c8ebf;" edge="1" parent="1" source="ljl5ft7ZTBluvvlXeNtD-8" target="-A37LQIsE4QHnwAx1lAB-3">
          <mxGeometry width="50" height="50" relative="1" as="geometry">
            <mxPoint x="610" y="140" as="sourcePoint" />
            <mxPoint x="660" y="90" as="targetPoint" />
          </mxGeometry>
        </mxCell>
        <mxCell id="-A37LQIsE4QHnwAx1lAB-5" value="Connect" style="edgeLabel;html=1;align=center;verticalAlign=middle;resizable=0;points=[];" vertex="1" connectable="0" parent="-A37LQIsE4QHnwAx1lAB-4">
          <mxGeometry x="-0.136" y="-3" relative="1" as="geometry">
            <mxPoint x="3" y="-9" as="offset" />
          </mxGeometry>
        </mxCell>
        <mxCell id="-A37LQIsE4QHnwAx1lAB-7" value="" style="shape=image;verticalLabelPosition=bottom;verticalAlign=top;imageAspect=0;aspect=fixed;image=data:image/webp,UklGRtRcAABXRUJQVlA4IMhcAACQVQKdASqwBLAEPkkkj0YipCEhI7T4MIAJCWdu+6SXq0T/tz76aP7CbQ7/H9R/wb+DeoD+E/wD9aPfx5ZM/WnOTN4GeAjpE3tin8Ichh9f/T/1DvSaD85/ZP7t+yf9n/8/+m+aTkfqx8A/dP8P/hf7F+vX4Jf3u5n3v/c+U/5j+q/6/+xfu3/iP/////xF/qf+t/dP2N+Y/9N/tH/N/vf51fYp/H/5l/ff7b/lv97/aP/////xf6VP8D/4vU7/P/8R/w/8N+/H/X+mf/nftv7+v7N/uPYW/uH+e+//5yvWg9FL+if73/7+uT+0vxDftb+zn/F+U/+T/1v/3ftr/////tKH4D9qfSZ9V/dP7X/afyL9R/0D7P+4/l5/ZPppwD/YeBP8i+0n6v+xf4f4hf3vfD+7/v343e4L+L/x/+//2T94P8J9DL7xwL7l/Sv+d/av8d7o/5vml/Ff7D/k+4F+Z391887w2PPPYL/pH9l/Yb3jf8f/8f6j1t/W3/t9zX+c/3j/tf4YJwIGoAg9X4AFFAEHq/AAooAg9X4AFFAEHq/AAooAg9X4AFFAEHq/AAooAg9X4AFFAEHq/AAooAg9X4AFFAEHq/AAooAg9X4AFFAEHq/AAooAg9X4AFFAEHq/AAooAg9X4AFFAEHq/AAooAg9X4AFFAEHq/AAooAg9X4AFFAEHq/AAooAg9X4AFFAEHq/AAooAg9X4AFFAEHq/AAooAg9X4AFFAEHq/AAooAg9X4AFFAEHq/AAooAg9X4AFFAEHq/AAooAg9X4AFFAEHq/AAooAg9X4AFFAEHq/AAooAg9X4AFFAEHq/AAooAg9X4AFFAEHq/AAooAg8rJWyb/8TNHfZ0YcGAIw556h4Ax1qLwcsoGoAg9X4AFFAEHq/AAooAg9X4AFFAEHq/AAooAKPwnetaO/UWjzFTcD2/TmfXOMbdZh2TDVyYbhN9Hl8agCD1fgAUUAQer8ACigCD1fgAUUAQer8ACackMc8hXDPmNVPy5pgB54XY/wp88eZZimFGv1uvYldeFhZLFKkhewBB6vwAKKAIPV+ABRQBB6vwAKKAIPV+ABRQAVJgK9VjURGxeCAGtaFjp3pz13sxn/Jo0sTUZjes7tAoNjzkzXCpTzVRSIiDXlmhs5eOIy6KAIPV+ABRQBB6vwAKKAIPV+ABRQBB6vwAEFV0lWRnsbxcSAjBlVpOjlCWkM4jXisrQIUz/zfkrS3eBkS1pgiFkkrcVDs4lJVfgAUUAQer8ACigCD1fgAUUAQer8ACidA2O0zGx6r8FhlpZCy7mApJ0fB+pPYSR5LsJj4v64tF8Qn8ICXB9IbfI6ukLMTNq2SLllA1AEHq/AAooAg9X4AFFAEHqkiQgWqHK1bJIXJvCI+p6vCJdhHKG/LsOuWot8yjaWX5Rup9WzzuN6WAjwOiUy+NQBB6vwAKKAIPV+ABRQBB6vv/EG9PawUgKKAIPm/vFMMoIM2Zj5YrSh4YrDMlxojPmqJv1rPnSRooq43lIP+EHhApOCigCD1fgAUUAQer8ACigCD1ff+IOn/bFcKKAIPV+AOlT0ZtDVM5cUZbrJuntyH8rFTkfSeSl+x0yxW5WucRZoHgpwEItki5ZQNQBB6vwAKKAIPV9/4g3p7WCkBRQBB6vwAitNJ+cVJ3ba1yH1WN+GIM1UOsy/+SMpPHzUWQQWlMcboOHKvSrUKKAIPV+ABRQBB6vwAKKAH2VDjqvSRcsoGoAg9X4A8joWeZ8NikMMRmQuPQOc6wHU8ScTILqBiuqSwKh5jJU6GMkXLKBqAIPV+ABRQBB6vN00+DB7JFyygagCD1fgAY+XVUkPe5lBujf6zRHWClNiWYHhht0IAzr5d5CEqTHsuZfGoAg9X4AFFAEHq/AAR5H57fCigCD1fgAUUAQer7/x784QBkNNKSwfdsKQLC/NLF73m40P7aCh98agCD1fgAUUAQer8ACh6e+bMuZfGoAg9X4AFFAEHq/AAyUqdoqWag4lIvlM/c4AUUAQer8ACigCD1fgAI8j8+Ev4AFFAEHq/AAooAg9X4ABy4rECHS+lKPEygCD1fgAUUAQer8ACidA2QdV6SLllA1AEHq9ZYW+e/tCejbZ+XxqADXUmOSb7CigCD1fgAUUAQer8ACbPh6M1ACigCD1fgATUld0E3fdpQOWElKYRZPSuXRFGGoAg8qkRH++iVxMoAg9X4AFFAEHq/AAonQNkHVeki5ZQNQBB6oLPnp4XnusgOTANc3xqAH2VDsvOgSAooAg9X4AFFAEHq+/8Qb09rBSAooAg0oQqgFV6hufVlemfyucvj6GyKAIPVDVeU7g/PfYUUAQer8ACigCD1fgATZ8PRtHqvwAKHb77rV/7LVQtLv8MZAfL9RkJzXZquClWLZIuQdxh7lJXEygCD1fgAUUAQer8ACichKi0HDOpJ4FLCR6r8ACh0x9u3MTklNpOBreb1MzwBajZ5UyuFFABeJH6xLzoEgKKAIPV+ABRQBB6vv+/Ye3JoLIgDMlpuCliTA9zRRhnj5ShST5aX3KfDPpWpxTwarIcrVskQoaRXnQJAUUAQer8ACigCD1fgAVvaWlZsyGl+J6M+usrqUX/0gU0u2jy44hhhNvdq30hfbNamPT4S/gAUPTySkriZQBB6vwAKKAIPV+ABRQBB6vItBDaJb6nAVPOmiTxZW1F/O3sAjeQ2CZYV5r8l/M/L406Blnee+wooAg9X4AFFAEHq/AAmo0J1e2UxGqYGHpZ2tkf0hEUoNcuUxN1JV2hRntttuBiP+H8By/YUUAPnNNrT2vPfYUUAQer8ACigCD1fgAHNUN/jK/+WMeeksGtQ2AJep4zVT8quNJ9QlL7tXHlrBw+My6A4wacQi98sSr78mCsSVxMoAg9X4AFFAEHq/AAodSpNwN1xufCcZLxBy0fgpawcPiNiqQif4g15RBqs11UpZ+XxpywRK09rz32FFAEHq/AAooAg9X4ACDhVs4ZB2fJAilt5D666dyBr/dAC2HhkOrF9K1OKeDTiEXQcsoGnQNkZedAkBRQBB6vwAKKAIPV+BE6X7Q2/cTbEGq1Zlhr/wiBG8hszPAGFZzNOJV9/4g3tee+wooAg9X4AFFAEHq/AA2ZpwiLPcuvszwBrthRZIWvyYH5dmq3bDwh7fGoANdSd577CigCD1ffmA//ldki5ZQNQFicsiwTHgHx1AHZquCovKINVqy4oa3iZ8VLEq+/Jfpy86BICigCD1efgZTL41AEHrPHwl83RNPyH14wPwGqkLLfN0uMp+VV6wa/4WyRch1OU899hRQBB6vvzJjt8agCD1fjVmXMRuiTlq7uGqENVqy67+FyO1LikQV3ZquClWLZIuQ6nKee+wooAg9X35kx2+NQBB6vxmYZruwq1Zl9RreJnwX8tTRCiCu7NVwVGGWUDTlgiVp7XnvsKKAIPV9+ZMdvjUAQer7Q4l7qWR6VWPbuqW9BsMh1ZJ+Sjul2Y0sx/EF3K/AAmz4fRK4mUAQer8ABNMdvjUAQer7Ndr5vHzWzDhfCGbXRlwzAHZquCn8BiuvZPyuCovKINVqzLmXxp/KWjwtv/m6X8ACigCDzEz1P4AFFAEGrleLFgytDULFQmh+pY0oOiEW2INVqy67tJwRif4g15RBqtWQ5WrZIhREEJXEygCD1fgAJpjt8agCD1fgD+zaJKQvvGi+wOElDXs93JgwemDWrBsMgtGzLA8agB86mPOK9UVeHFoY789X4AFE6Yx2+NQBB6vwAKKACpS+j5qi4b6G4HFBAhjNfaB4TlkWK8xoinXPoRC6onXHPidVRcZBSU+UgVsktBslsK38cDevMA1awpsxd9oID5nZZ6gSGMkXLKBqADpnqfwAKKAIPV+ABSrUFndu0hTlypNyFvzObWf2hloVvZHpd2Y0sx++2Am48bMUXU2T76f1v27lHnz4Ybf3luuWAAV1Xje5QeNQBB6vtaY7fGoAg9X4AFFAEJPW5j4AC4ghjmIBuYzV3bKflV0NfyP6xXnOfjvDlRiM5YZk1FhlKEavlUdF7KYlX4AFFAD75jt8agCD1fgAUUAQer7/uhdH22SPr7e7ehfMBY1hlxXdmq4KjDW1Z+cRCiUApRZo+5cRRWyzaVH+mT6syikBRQBB6vv/IAZTL41AEHq/AAooAg9X2swf20ymucnk2kjcTD1IFe1CfHwUtJikvnK1cUj/rtBqAIPV+ABN2BlMvjUAQer8ACigCD1fgD+zaJLNajvOE/uSdcxrNnbJFyygagCD1fgAUPlnqfwAKKAIPV+ABRQBB6vwAKJyI81d+AfEzTfeMKzSnTMo8xEbwer8ACigCD1fgAUT+cAymXxqAIPV+ABRQBB6vwAKKAHyQTUXzFno56Zk3dqDL2F9JTcYgKKAIPV+ABRQBB6vv/IAZTL41AEHq/AAooAg9X4AFFAEJT8vjUAQer8ACigCD1fgATdgZTL41AEHq/AAooAg9X4AFFAEHq/AAooAg9X4AFFAEHq+/MmO3xqAIPV+ABRQBB6vwAKKAIPV+ABRQBB6vwAKKAIPV+AAmmO3xqAIPV+ABNSm8y5vYpcYeyRcsoGoAg9X4AB93Pa2GyJA99taR1zu5sBSAooAg9X2tMdvjUAPuPd3QsLwK7jPQ+rZTpo4aHyr3MQNMCo1waRbwqmM41igusA1H9HViVfgAUUAQer78aXVrgeIeMXHVtmYqS/oTouo7xHDglNHd4ol9QeNQBB6vv/IAZTL40/mO/czSC5xxABp5jv8j2YFkJuEy3E8+7Hmm1vRrfgSfO3ACNZNuXVkWaTyVJqj7FoVuQhaeH4pI8AbFzhiAJc1zIrE3COUEI+pJq4k0M7CmexHXmafL2qk2c1I+OHV5wxQe3xqAIPV9/5ADKZfGn84CzmamAeDjG47EDuX7LD2OqWCN8VbBG7pM9wkeQHyIAU/Cxp3fL/O35SdC0t7kDbQLKsBMytYV1VuIDatoXC/YqD+aZp4RmccTy5RCglOhAT/9JL0l+AGFCfikUsrvOZ9412BTMElwocI8a1bba6Pn51Bi0L/wR2ibPekL2nuaBmgG4G64Wje7X/uOFiKsKKAIPV+AAmmO3xqAHzmVSygvTeUcyojHjVdeK0lCvXioM3YWwhgnBFYXajTfXvIuDK8aXuEwrOVQzLwCH70CXZyrVTRzZAexMYSsfIgZuYrpEeo2GWwuiGdikCWJE7JdE4Xc4+eClVQChsEiLIMQ1A/VNZ1ftFYjx3N4Hx9f1C2frMbDec4vrb3E8HUKDd0+r2CI85Ig+J+RM2HkBCjIaYlpXCigCD1ff+QAymXxp/GDpcJWf5lF75iaJuogWfzjNW+FllipGgJNEo4ye4r7gqw4QIWdYrIcY6qMIQBgTFEyYUUJhCtR9VZWcEmXK9NpLXF3Oia8JvlaHherkAqiBEa809fmNhb7QEcbp6n37uV4s9Te9H0Y0hwiTvwYzHC0HS/gAUUAQerz8DKZfGn8o+jAIlpKqMWR4OoPxksvN5XyJD7pX310nKK0EU9GKa2eLNHYy58wdpGqC+0BdAaxebgpNh2PiBECPKnB4qmXVYAXJUDCRsMNaQmDTwn6S9oUB8w/iyf6D+PRNmzLmKPYgb/yhch1Pm7Wf6q6r+P2eslZjlR6No9V+ABRQBB5iZ6n8ACh2XaVUp8eMkYu1xdoiO/h0/tZppYKkIWSbKnx8+ntaKFcZE07ZSalgeGoRbN+HrEPhh2FB/A9MJMCamEsuxKyVIC+JGSZ4EhF2siWZ/qQ2/OHQ2+qDDP7OdhvfhaURoIWv3Skf24CqzSD5VtZo1TwmmTWBsGujX24ZN4VFN/bsN0gAUUAQer78yY7fGoAhKzQWEZX18K0E8d2DhRA+u6+qPjQT2AEYFZsgt6RbJFyygagA6Z6n8ACigCD1fgAUUAQesJKBqAIPV+ABRQBB6vwAKKAIPV9rTHb41AEHq/AAooAg9X4AFFAEHq/AAooAg9X4AFFAEHq/AATTHb41AEHq/AAooAg9X4AFFAEHq/AAooAg9X4AFFAEHq/AATTHb41AEHq/AAooAg9X4AFFAEHq/AAooAg9X4AFFAEHq/AATTHb41AEHq/AAooAg9X4AFFAEHq/AAooAg9X4AFFAEHq/AATTHb41AEHq/AAooAg9X4AFFAEHq/AAooAg9X4AFFAEHq/AATTHb41AEHq/AAooAg9X4AFFAEHq/AAooAg9X4AFFAEHq/AATTHb41AEHq/AAooAg9X4AFFAEHq/AAooAg9X4AFFAEHq/AATTHb41AEHq/AAooAg9X4AFFAEHq/AAooAg9X4AFFAEHq/AATTHb41AEHq/AAooAg9X4AFFAEHq/AAooAg9X4AFFAEHq/AAOAAP76I1//GyeNk8bJ+Nk//yM8JYvPYIcDAAAGZHQAAAAAAAAAAAAAAAAAAAAAAAAAO3Tsbp8EMJ7Za1eMWOUkFA4sKM0FXNhq/0If+mSpBlT6M51NS+EEi1tu4mIALJrMTzrOLL/9K/UlLRWQ4O3uv/upe9hzndiODftvLvXZa/npVWkeBwVITSM48Astub19dDOX7cKKqHzcp4Zje4EU+UfHZBfkInjddgIvoVgK4jkqsCKtmKC6XTISPhmCZamVH2knwr87D34jG+h6EEt+Nq3WsDDRc7pMWRxIu4kcfK9zdgN50ozY+9cMDKS/vSq02f1QZiyTu/iqzh2G14HXrkBjgEwsRB1iEKRtRvqqVbQJr8i+cIO/88DpbBhN6lIQpgAALcWSOJoJ5I3A2aSATWb3igrS9/QDUX0LB+Co7ij8NWYiY3kxHJHIqOGwLfM+ShNNVlw97NzlH6kqj+4L9YrCPyYv4nX0zzCLzmmZlM2zdb5bX9xqWjwxfR3JXmyXJZwJ1mTMhNnAHgQd68lHYUV9xnKCVfujzIAAANDY0rEKPvImlct2XZyCfOQWyqw1PhyoZjNmuPITcGxhwsQRcAhzi4Q4SPNs+lufp//aA+ihV1vbSESHB27y3zwab6Lies2ZzLHobHfSu3zbtKng3Ipw5lK9yY0MK+Ks2NSW5H6PKEf3anrM7yiSpF0OqBxQ3nen9tltAitMpxfbcd3ONzyVOhcmGCvSAq2HZ9p1CyftTJBCNdzNB8WyJ7q6xZQaTkCuIJogAAH0J5nb5CztwmL1f/kS74SvtJWUVh0OhIXhRUCeCfQdjI2AWDqyJeStqC1Tqv4uuO1nDyGs3l50QhiIEE9ySnpFb8NYU082/Lfi6BtB2i5LxRfgTfwFntssCv1+k5AIrgqyFB4Mi3+sZO0LYgWaFV44gv0ynmQAd+KHMK8bMbRnCXq47twVMAleDDD/W3D5TdI98S8okW3/lJtSK0+6U4A1L1MMkrdSSHIc2Jc1TXUO4NpZ8yD+HJm+/dygY48RL+lQUKJgc4smuOnYVR+Gc7rCuq9RcFT5lW415WO6dzlQ3QA+2UYeYB19K/QYB8LnZQPvYfDTRyeIG9rfQJMLl5ACo95GYIKeDIe7a5R/AXANC5xvSx9ALq+lgqB110p3eLPSg4lTu25WHZJ/qtwZmwc6oAI36fUXG3quleKiJVDx+TC2aoMrOoSBJv+Q9w4/odKsltejqJPixpcDr90evMDrrELq/z7eM8qO6fOHcBfM5kaZiPZ+E/1QkPXot7MN9tZSUU6EGDeW3hjwlZJt/L/pMVivvTVDFDQpBAAFX31BfcOTGjHIRby2rG9oUdsK9f7qScpZhd8vdzA88RGc1k0TUUTe4MlOf9EL5mJQnbItim6hw6GW7Qb7lDGd3BZLLeEmlRh59S6OsghhTxniO8A+fuQ8nRJzcHQHtLB3Tq4Xq0H3la+5D6UyYCYdbsXuFjD7I5FcE3lghTz35ewoWgxwg5yN3nnDd79pMn708B4R/dezCIAP0hb5c1mpgX5FwYYy4zz7cgfku8nP8f4+RRwYM6+ZjBlJV+LCljlzPUOmL4ynUOvqqTNH5szXcU+hxBrI2jR9NYfZ7SUEe5I17+AbqMalGoTQWKkYWxxFsEEyAWCp4/8F52y1vVAe8kAgv0aVTRUiIKCvSnFWc2sZNzUVljP+cKCrw0oWA+4K1K8TV3sE2RE8ScvUq0WGmW1zYr+PuYXvTwsMWIZtxR5s0VKAM1JGexKS59HsFoFh+H6rr5w37BJyCEbNbr2FP1TR98uD7OabFELEuKPBpyD3qbNGRrxSLOfWUreI4k2vVkncgnxnbdnKo7o1Uxhl513+XTDXX+pXv56k6UpDee6ZxKB0yP1ZoYzV0a9+JcA2G+RRWcB+iT8wUGSPragTY70g6PTpNAen9gBahWqwiXJc9Ggp/mwE3MiReGW31dqktsI2cg3A57sfjOKhvG5gAAYmFFm+CstevyL+Q1kUg6A9wtq/tF3xAEQKv8GRino6wgQmDdJWOwpQ2iiH5RjQN1uyL7gQgZtfDUjFcOliCF7qDUjCOm6TAnCN1cN6iulBaDQzZ6tALGKyvYAAKJYy0ASZhtWM6BaIxbYJZ35ZVvs2/kiqDW3pJOCDlR2x/afMqNDCnQNfww99ekihxX9YTKI43qKaAL9HgXH5XnWkPvHy51FbJQOwtKhkKKcUQviWS7lWTetpku0sHqk4+Qn5cK/lLlww2G3duONcOGsBbW9YybxfGtPY2RWTnrHNGVXsvMUNMLHJ7PyT7MtB2D1YvqPiN+fwWluC9mx3G3yygrAROVKLbC9PpkwVyoeUo0EqWjx90gpnmVgjKlQ2UffRvEloQgy4My5ZZqlwFOn9MmyOCoONalzRBHszgEP/xJhUfyTCfbW8I+ZQxHmAa7JWb3RwnjjXtDww6txtb34Uk9E5KopSvWYJxbU+3lQU9bJnE0dRDFRz2aYmJsjKT3s0XOs4RDH7bp1SzGs38d/qfC703dCKVZSY0XvDWRG70dqWcae3+6b6kzMe3wAAl3MHTv2KJbvWuhIZ9Etl3azFCcOameBmGSHVoCAAADsACWjYUOoA9fIBwrkahx4F/wgdeJPCZUkpkGcMcYpmjmwlaLAlXvNdnhJtSY8QxOG4zqKzhtg+Qkvox0QPVGuoTojMInva0hg7DANO5rRb0pwQ0Hj7h0La4OmPCfQBE3tiHhWLulsqS0Fv6hLnA+FNsyylC7dpzfyCCxS6Zjvr/xeEVg+Ib1pQKfLhJ4PdMrotVkH9To41zS6dgxK4hJnO4LVqsQtvg+/3sEiefX93lQWVCO7tjfYcUOBnIHfTGE2ykX/hYZLbkmGBLmQwBh01WJtn98d7HYI9128JifGe6P88XPKsRBgWdQoAajh5NF/H0ofa70uLQ6TIAjhi7gS1ngHQACtCxzAhD5tP/rcKHfry4U+eHWu2PYqTV14iA6XlaxAnuZjsAHWo4uqK9n3OJZKxN6J32RF73aA9ar3nXt0T3c1lb0lJamUFxNFHBgw1RQAAfzBGHGit1yAAHjruLQsYmcLMMjakesBFC5W9imuq/mNg2xFP/gN9VxLPns3T4BkZYPkgk+tZRLydEieJ9fYf58dJXPCVdg/fYLZNpVjA5gecA3mC+ibk5aV8EmkGtV/DAMZ6wASXdgAiMnMZR2eGWIKukrA11+Qvtfu19UzvaE+fA8Glr9yLYcx46NXO1NQ8je1exJ0l4A8HeeQgLtMuVa8kinoyqZ8Ge4PX01yiA+Mcni1Ek3bk3nUNGO2AAMWN8lo3RLHK6XvJHYQGWqTPEE2XcsT5U9Dk2YYRiPbLHkcBfaBQwBlAgMEAnlM1Ge3MrJqG05eP5gaCe6UeuKxZx2uHYNQuM+jgk2AM4sUnAYQJbK5Hm52CqKBoYVeBk7D1587f+mYiwKKiU3V95TuvpdwS8GS0yTzf1wiDvNItrgyevysdsV61TfjolSyPh1Vot0et3Dxsr4SKRME0dxTW19wROo/XNZWeGUCAAZXWttqN3G83fAAIx1Dgfl8secs8Kr70I4VCP33+ELubPsrkzo/WgP2Muw+ZQ4EwrXms/eREWAbWmxiJ0n2YnjalwdF7QlnEBD2pQAiBhrScTrvd+s3lG/7E0GkjLMzTES8L8j8uXu5dvrY73FdC3m9+DOnjcrrWSSE3WD28D1HNhLEQYUR+hV0fgXpGbL9m9cwFwNMY0fyBMkZjgGbZFuFtm9RlB3w0yXFWljpH9rxEwzNRuIOoVL9ufN7K6i+irEnxVVIdRcdoELbDPwGoo3fUnPipin9jfTrinvFnRW0jzESqNzuIHZkcEzUhTBcOP+bjMKs/jAKjz4IFa2fr/ux4RTE4d4Fi2rBm+Yv8bCRqJC09zXWU2a0nrOSS+TkJOie+OqPa8fmueD6Kb5UixdUrkJdJQDbC+lvKQB1da0JAQ8M4qm70kErflW5a+aX/WN/mQLbb24C2NlMCoAXwap0WzalUAbKVrRYT0eJJ7gjUcXri0JdNHdaXZHhN5zRVabOQpc1mZdoSGwcYkCUQ0vDEhoE9sXywij0HR4pmzOVPtv6R1IN2eA6WiuKGxiFyLzX0MtKP5B6RQWy0OE6HjumVMuRM67uuMta24wsi3gvI+GJ5HkLLQMdYnyxdYW9JyyQ8gt6v7AbSTfjiUEpvniyq/zQDeJdI6e5gb+/TYKgvvFSLZHNmPAlrsM11Z7F5obWalpRUQTSEx6ulLmPv09ugUP0Pcxgra3zTk/4fAlsAo3Ci6fV4JPVwoQhlL1RySc9cs52SibjkWRlxpTI8mommWIzumLIe2hwtQ5vd7DAZ3+ehDRFp9dbWl3y0SuihySctu6HpwzklxOZ9sjR6t1sFTbqsGdksVNYzV/89OtBMhGIBT1UZ+scANIvsbqRpO0cXgriYArqISsHxNE/wO1GSbQHZ6ABC0t611s5pUECL1N+jaABEkzUTrFV5ON/t7/DUC6L2cRCkOMv/QFk/JbJctd5p1yCbplIQqkLO6PnMqam/GsPVfIhvzamsd+nK9J/WqAwfefjD5Do53v8q/MyGbSjRqgJe8NV9GC7G3wvt7lTF8iLBl0x4E/s5IZqbk/xCi94XffI5wFFqZHroqNcd3AasaHvshSHAGf5sI0Q4an3Meq81LJ7GzgjIcWSWdXwZ4wkoxZceOOAOvbmvYDXZQaW9PKFxVD7nN6OIKFUnZd6/OV+Xlsspr5pqjDG4r2oeoBy3ce67pKv2o9k0JhRTAyNGvVY9fqL9Rm75DbYiNoWHChFUfBxn09Ud0bOXr5QzquRj72OldHJlECRU6frqJQ8vTVTjkJxngohQq+zyQZJUQgrmd9Bt9adzxGaVEpQusE8DVrpBFxjoFeou8EQnCsxAZBhyLX79eH6aaM4fW6+sEp2bjQKygIVt9U2AI6jNwlB7q1eHVAAH7B3mPnHAxf/AylW0xkfCYfSJa9QD4mFr1ssu3qfcVkZg45wSE9B2gmwSPFa1YZI+8P1Fo+nl7vBilQ96rAORH50VrUvug+GfK9Hn6MS+8irE77SbWWHp97oHd6K/QCdkONvH4VxU/eswTXfFIqqJ4BbRS17ey6NfjRcjugy5P6s9z3RZv02N8L0Ts1Ji485dRHpxdCCY8IUAbAebNGnT+iQZqJvUTsP7fIgNuZKWd7PglJsD9oIfotDqqnoHbu43swWSppLmpGp5v+Mti59ncackTZTeh8TNUzAgcVrJqblo+HvPcLH2lLmohT6N6b/1xfYx7lMrJDqzST+9QCSmboR7/fFlRIL2IBMHl+TB+7oyxoHygeBomAiz3988nKmzY0yYUVcWabY24cTJXazpMGboXAKgDvXQ71tDyN7zwAARbVoKMJRekaEup6/sjjkDs7ydSLSCxTFCEhxFhnGmKPTT4IVr1t8xEdFGYAm4yDTyluXrt+vOPxT9ZGv3bmJbAlcPfoDpduGxF34KfB/yQf+EfqeXhXRtiqzxF8bjY3Hm6e9xgy9SfzFeKMbArRvII+6vSXSK72eoxVkzUDV3KHzlXMj5+Mv34vAUfJ7LotLgA2nNqn+3GdL4VyhfocoxtjWdu6UVehj4bUu4NFcQyR02isZ9hOLNVdtXUHrw1k7WdPuqm6K6n4aVxgt3EWQmQ0O5ownDhQk6n6VcqiWb8Wzo6y9F9NavsrM0HSCsgTeJv2UzME50Bp93kU6+G/+nSnsKhOAAAxGSnYoEn2jQ2U9ndXbSMwH3INkwP/PQwlWE6eJSWlP32gi8HKUkJXAF5cZNlmqOtNlTbMljD3hKwgCX74R/2b078iSToDPeLCwxYhv8B0darFxvpBASqSlcY8EjyWcTnWfKxMQpk7LMh2NKbTvwRKwsRYQRF+4mXnmXQ6adtYGDaab4kn7tJNXkZHWZ1sof146HYfRLlcNIUKbAzKOwVXDudht85wxHuZJDQgkAG3mk8/wXjXk8AaIIkVJwolajFf1BbDToRSwJI214tghF8tw1U6or1MAY6UAiSgCsFQnXXsbs20ABvfS3VdIEPwuovCbo39Si4jV7Fe4cYfrqdb2r+MABUjK20MVjCfX9Sik4YNqbHcJk6SmYlWXqC8R17xKBTPfJqByD7d8iz3wUwJETO0zbpJnaTiM8b5WlXs87CSRc4eyaYyfU2IX5PWO9PTNy4b61uf4NxDoAQC7u/anwAVEDM7iK3mu5uoh2wzZcmQka8MBxeVlCXMah4aJzHqUj1JpSgOdeSu0rs2VdJVFKB4J7JXFtT3p+88TN9ngIgwUxymDoPn7d7KUxYGclX/AJb6+p0Jo2YL3a4+BWHiKy6fef2kU1MmbuIyifP//PYQbme9xCRl3lO6tRKP3p2NTDFxScpdnhY5S5xRYcftXZObn+NhshdQhVGoJuvz0UxPStscZsOcMLfDWosqC9NoU33KNh9KCDLfulgWYD115e2b4XF8Q9agQ3sdP9rCNQvCtABtLu7+OkIbZIhWwzAd4GhSvjMAeBDcX11LuMmWRqjID2AaXGJXUI1a9JqDCaga3BVUHPirA7XgUF2c3cO2Upg3f5SZoCXNAFCEQ+fI25/bhpR+RYcsLMQziPaQo9DYVqf7EDIfPObHiZ+4GSimd9BdMJO6f2vZTm2WqaALliT/mBKaUOK9D6tNV3XfhM0zURPmOEXfh+kb/amzwG28b2N19PS4415HWiFrPa1EHGGIPNrSbY95cpEkH/3wvvlaTqnEE7G6kp9C59eeZbGjJQ08f9m1vbRijfPD3g6OEJOO0dqmlnpBnZaGfDATp8/a0bzcg2Iej4meMpmSHwXCOaiLJNbgirxAnBLiKbNkxIxWf37Jx9VNC+rsQb3Q+F/73fWsKzl022zjyeArKU5+AgACyZyPd3mrb2EeSltT2A/2qq2lr+AUBoBVQqRCeibM21N6H1+OWO4yr3OWku4X/e3cjTB9uOHQ+gKVEKCHsJ2N7yvsaQIxd3fWPhrv/QoEKktRunrm0jMtwkTsDRQ+MdG6T/pqJaFMwbv195OfXa2xKh41DfeeIsS+gZHDFHhnJMizOKO1ilsZYHoGK+zMNmKDyQfUXEfYT+8TRJDgj1mnLlOAxejnSCHjdeWyq0Hx7jOJQ6X+/03rLWfrNfnJbxcvheFiDSrXkXv+GNoMMP6xvdl/dPw44uk3X3LkCTMrIjt4gbuslIXXttkdprgBXaApT5+3kEITeFfdZ38N3hKd+grTGDvpeR12CTq6W0mpbCTCFEXKVuy4Sn/KF4yrFdipNCnRU90gkjmRBil37BNge9PFxnJhG/CJFLHf0aPu6OMK5D1ShAtrxKMMOmPBPhk44IKD2/Us4QFWyRF/7gXaR+2yxter4UBCuEX0Bge7rmJZR7q7x59MYFjB/TUqxUtCpA665USxR4TKqWpRbPQgx/JY+FwQYiJmT28KReebwqIoG12QfO+IcYf2vZjCrEsX0rOi8x9Uv+iC+4Y4DjhU9ehFa3brAnx2xBNZ8wf0nqesQYvB0vP/GHyW4yyqbcN0QO/qlCV1OctN7yqyJueAFujNbuvgfvFsgz74BVIux+A1Vgk4u+RAjg9nsoAaizKquMtu4XvjVOaSPWE3oMD59oKdOITuuFUKqK5MgJFbr0z7YXMqxeer5yyLwR3KMqsgFNRY8SOv4cbvfJPtPIQBUuBjbPPVwupHAS5AJrmCUTQnV7JTv5pxHGiwcmzHayaZ+/5rzc1+ps1EunEkVsUVx2PdBfMhchoosEOQxEKHnj9JXAxLES6ouGWT90/cpPDRABhm60ogvuqf4qMaOiVwxbW0o4KPiK/ZPFjb539bvH0TSh/ZbttOU3Od+/ZWNc3GFWoo88fW3KtY9D/aoWp/BkbwsyDJq6+8EVdC+LPVp3Zj+LF5k7jzVgAQj3FVVMwTGDfvozlXADdBfmtguMRLrN2B5Uhj9WaYMvEOytS8mnCkzxb5NVGbXlnWtPczJVdFU1tVT056UdLOetZTGtcrSKH9MZJPcHhdb0mMp1FR2UPXxs2d953WuqnldCAfCinFaSp5cRDuTvtgQd60uj9bkjJEFfdAY2dAd03wJjLJRYTN27QcNF0poeoioS75ga/bLukjLeIyu8jwtiQyEzfCN0Q8Vsr80XBuxag7D0hihPjx1LsNiNbHjALVv8yReFyvP5cnBYqakp9oyIqmlLgikpOS/T3/2iD+Y182Rsp3SoiIgAABNV+zxrOJs9KG30mleBcNQW6PbRfuCvs/4YTaECCwo0mcjfAD7ElovXKxsLI6JU5bKe1ei1GZWV2kXAfaR3H/SkMouVDTmRFTB+45jSe+OOMsc5LXTgPJQ8cMbYWmxiJPtRRJMCG2ddlRKX3Z7vxSVwO3KraSvOBhyRZNVg+9dLrwK4LRlFie8sa7h68jtF/Z7Ng54gOeMxoQJrTv32xag7pCTjmoRljW75dwW0UrWOJkb0VFBn8s0VkwQO0cMCqd41wpoy3GLAdsuCQ6200wQbHF+TMO+Ziwq9vfOsOdbzM0Gu7HvIkhd0U97l9hmrYYjG14mzicQKX2FXIy51XYQAsIGbtJ8QBrdz9S6A7Obhit/Rzd/rMgAkpGlJ59TqHiTssPAVx6reTes6CVWgS/S+0iDu+FTITeExjWYNPJyFB2039m7iUSrcFiocuFVAzSh1GsOLkD7lAAB0u7sKOirxAO4+e3lTp2Xn3hD4WkP8RgUn/z0bXnx2GgwB3G/aCTXLnn337kGDzzA9MXhzl3x/aaBXb1Cbu+L6WZqXAQYUCTVWiLHeKdHPCzjr+QT5BD+3iiwYjF8eeDoJcCNK1qFbQ4ZOkIn4BH5NIFsT+i8omEAfwT0HzjGpapJwdnjqgZ2p3ST3mI3RrWQ358y53S+FRKsG6nHvt3ZnzovGTnJuc/xQ2Z2daq/2ccrQJCQnXEVcK/Z8H17ZHMVlue3cZnHjOTfhv3ZLyyO8Zsc+78+VFkgEs3RTfEacspZKHMw9/6Mb3IxlxJj+b7Gf+o8lXCB6j0eS0OID7HDzqBXXST26ckUlqVFcZHv0MtQb/3lkNee+lE+EsA/Sklap2M4mw3zMbAzUo5kLwX5P7Hc7WYy/ltpDSPC/BhEIir4AIUwjxF9Q47HxhV5vIm1zZ5WIe/7t9UGsH7ig/Aj8O2QwTYwCqGWciLV3U3XLoVcMYpBhXjfsvG8HOJ0/1JPdeIYNH+5ASlk81Cy7dxg7GnH9o+wh4eFk8NabxOCNnlNH3kXufU+ggUfR9G+kLbKvAFKZZ1bK0BJUSyzt319exwWSPW9vEzV/G+R98vXrW1eRVKUDEZkwtxnMisxRo+7IsxnFXv1lEf7eL8zqEEiSZjvK3lT9Ljx/mNoZVqQAtmqlvv5ER3nNl1u6S7ZM4f3yCsoZQne7To1AXDuTCl4dXOoldQvptEpTvX2m3QPSIqmnbGIAc/ciKNixJG+Ha3aJAKRR/bxI3V7lHZNT/i0CoFViy6jK+kKB3QFD5MgC+Eceq8t8w2yoXZIhDqN5lmPkFXKT6NoKx+wq7YhYaIjIK/CKTBhSUPEasB8BAAFs8Y7bZgkmiBRyh1m62Z9fFWLdrZs2TdMm7If5MQ7snUIrPrc1uoySz0Dafi1fsL+opT6UfpCHxn7Ucm22xqxesm4hhJWXKwWxxgDtCOEl1pETzZ5z9QswX1gRzYZjL+XVQEAEUvNbF/AOOxHZLzfW8jlDRh9ym8l6lxHfkd+IgBH2FnnfbNPbdbQO7KLVRO/PKJhn5Lz3aDjqfuXxd6y6Gas0P5UwcQJV9F94+qIIwTT9Ms+jEK0XyJikRHn0OlbGIAc/GFpY7W8m3W7G4/oYJH+yaoZbQEWaqTUj4Xg+YDb27/TgnNLQcPg/Ex4teTJNMyZYfPHrqq/+h7aIyqH+nvITYaYg4Aji/vaPEFYwQIfpXG1vDovRVhhwBsAHRYA9aDyIWA6fVltQBGu6iJYOy9rjDDP/q7aWl1kHxmgrlDzicUz7jJ70fQqH4Wqj3JylHaCyV1u1yMIA5mBtHeJunqlCXNLNlO7wzgjVaEY2nMDSyTJlIq+plyxIkrtZTblNwtgBMgBum6GnNFXJ4cYrd9ajgPe/DMU//3C8xNbFiy0oBnXUeN42GhHDueFHvxCP0MGCLDheBjUE5Gbmq6i+Sih1Xeodfz6u1DndUj8kkjMn+jC7NomF2C2d6IG7O/QRSxaHBFcWn2YF6CfcxblYq//aPgAP98KJylHX+IsjrNGJ3MCOSlC2U7e8ylRqtB/4f6fDvd0Aifcob9H1ZmACFUhgohyxTigrWuqlZvoB76aEcOwFbjTkFP89VGQjTmOaJdPoYiwSxlGYrWvl/n2xAQqRblGDQwWGzL7amk5Sjub+g2kEdNbJJuAAhE5SIN3WSkZ/0ORHRL4LDUR3vGbh8zDxyqG/UBt8q5sqoYvrR5xVnRGhFH4PPRgjVYHPodWeKmIjrNd+sHSWgW0pR5PElPBi409er6xEMiyKMISwP+GjhF6oI1tVfSOwnOJmRZ5M9AinZlmgMSf8yj4UeajDkmY8DM4OUokSDYMqdg7V9WRXD+Y13mTk5LtvHdmQ2ZJLpQn0vuotDqapbxjo6N5izDwdwKLXNfuQGSkvtUnECdmERKPV3LFqroC9Ul81nEqv2sOoYkHB87Qxt5agGyFP5Mh5dqzekx8frwCX1vJpOl+B/dFYH5FBlVq730+lip2xdEFxiLy2W+H6KvGZOS4UOHM8OOxK1ol+kaI/jBMrMRsa7pt0Jw+ea/luDASv5OjP6SvPQ+EwFlX4+yUdGkgbUE3i9t/0G0gjpqCWFtWXDfOcGwXA+CQ0zljEWAlKpzz+vw68nYPaG9G6UqBhFPMMP1LxJmaUs5WNkfQo5Klc443aW3ss4DVodl1KfLfVzzvel7Frcwbkqxxx95VaEQTnyexu37lA1ratUbkDy0vx6sfOZ+Wct1DHfj2+gs4byXZHtOXWP1tDuel36YWZ57ir0bRp1kH8xwN26KV00hT2MMQOWDZGbwDK1G3xnCy8OXEGoE3te4BT01koDqcuAyKwigBU/5P5qikaNvaPUQCHv5WSIWximeGIMRiNZcZlNJMDTVi2gMEM4H6jh54V6oaySZ++IVoDAP/CXxk5DdLVz15sj+3iiwYjGBkUeO8GwAAAwxB5oKB3Ph6HEJkNACnMZFVHdYCJtqS8z7HN/8gF/m6UV/0k8nT3i71+CTYauXHf8sPto371fVRqydLPYsqw0xOiv//iiZYqTRWXDnDIU9vE1U1lZR4W10mSeENssL2vUezjH9RxKzloIAaLBfRbklSyA1bx2VvMrW+7/+2HDvmjh3zpD8KZsJ77FhJX3UzsxbR4RcO2k2HFoRqF4BOcuS09b8YjlhX5mV+cfXL/L8bSzMQb5V0kGCqJmVdPFVn8aJqhmu82ik3HHHRloMxE5ajxhyCyzHrFRIVgG+rqk+MkudIWt5N1SfqKGl9bS4zO1TLEIUVjQBsEJcTaHQH2ogyGgufcNfMbyYDnWc4yzPxQHtic4QbeBbsQwBDNlT4ppuzyGskGQaJHj/nnviJixFGceqG5xgX3+HSEg7hBdjL4TeOjsmvDYJYrrxDzVcehIVmCpQo6wptLMQPQlBK0oakXDMfa3056iGW3hYlIWCYg7s78/nVXecS4znVq1SVRZIu37BmvWvqmB3H07MoiC4aSF4B6QHJ8ZtftDtT8Jo64VDN9E5Pfq16Xlr1smJnAGRY6og04Rb9PK4rkJITWGQKvC9bmkA1K2MPv6BmnwCnw8EX66OZAbP6CzU6kQqhd9uDQPZASLRP7IFupIlA4h77xXA/1VKELb4AakRYmw8raGihbjwnZo4byn237OKVgbHHPCTawTolrekCV+Hvb2UVYKyDooeqROA9u6146kfUcZLxh9YIxVQRwP7S7DZB4nFancKDZ4x4WNOPRJDJVxehGqy2abh90cxGUpZY52i6kYBzAdnX0lpcTLMeghwXPACCkp3D3+jyIEq6M859RxpnL0evUCNtmiaDzugen1maIKIGy5JeRGQLrJqe2wmk72q+ZTHIUduK5BNvj/pNEml30yZnwAd/oD23IO5rK7Az5oeXeJqAcsVMuP1kqswxMXE7EDi/MBiJjxp4IvBVECNq1mbn9Zz+IjFQd6/kTVAr7rYme66oXhWIwnG/t8G79NEFtUsVx7yIelusZB4EQome+O+I8x9Ep4uqtIGOoFj7nUI8JZgvOAS7Vad+ZzHAEb6ELy8QsSMLeyucoYtQzapurwDEKy40svkeyDagRwwc3iIQaANgBURnl3qLtjw5SQFRu+z177pBNG7gIhTYRzDGhz99CXmiNAVSk3/ytKBrooKVXzvP6dvy71Qg+d1hCcanQXUdPbzTN53/p5QTY2EzoNoNwwpj2SfsZGiKK6OV7FCj0cpfTQDYcK5M5XxKoyyy84OGnMYq39wvPA5YJKxGEfEhF+kLKScb7wId5BEgd9n8hR4zwLBFOsnBoh4tTZL6ZjaPbQV9cQRq9GueD0OcEnLb1g/8V5nfnw3Q5mTH6S6zxT0wKXkj60LovX06afKL6uhmeLoPcMmXkdr3JHU6e9b7H4pJHecN3KEzIWovIHR98vl6QCp0/B5//uqFu/08UQS51MarKCDpvkQxbwBg9gzt0E+1VXpDOHTxQgu9TMhDqi8CmLtsPfrqi0gyUeo7Z43EOYN8wp9PCic5vgMKYbUE+wxVgm52RL3yD3VoC9K8uMBFSkVH2bChvAuUVqMFFf1tdemu08geZPsrwZqB/ZwvFw9w7cLEqyQ72VptEt8L87y+vqgogNM+O04b/3NTmatC7Cgn3xMNX8FwA4698wNKAFDSYROKNIGtjeETl7kEhTbIZs1AuqcI4/8yvYFLwHVKVQ3l7qTdG/JXlBXbnVBAIwOx3iHmFDNga88wGBalMHDOudAHkDYAAAvFxuyCIXloFFI96AoWVYJ/3HOc2Gq3vx5w9EOLo98cacF8RmuPyvzNxZO+TBEoD4MIA/hYO4X11YlPGcwIEFM+7VeC3PTgXX/ixdOacciQzr85vLJGFtct7Zsn3+KDyYS4g5kuJs7jX+WuffhbI+ZHwBPYQnG+7r3kIAwiNBPl/AsFUx82jJUTP7CUaQtABHtw5wcdtn5V29oiuO0gs64IB4DivNsvgGiTN1v1Q5+q0aZKimaYf7T5lsbk3u+gexnd7o2WUYX3hS9P7bAXjQzowcXxWVaLgzzF7bNfHcrsk2fmHbPTTrfJ2PnljWkM7LmpDaU0acDrVg05Am0gjL1TLXLHVZ7U2gNEJNJBj1f8AH+efdnDo7jU8v9/yN5V6ovyv18yjbGUGJGYqC2UUuPTBmAaOPY+E4LRf9Qt+lawCe7tQqgPs+LoQmJWKi3/l8WxfPhLbTfW9gIizhCobBkvg5/BHP3QfagQR8OqzYu2rnj7fSMJbgDgOcGwCNT0/FOkDS4me1JnBZXGZxtzecwwX9XI4DfJ9qqb8jQP5T7s6TCbYSf3DhbdxXnbsiXHQXgHtD7GTFtYwkZ9qnriqm+yXg9UIOlF3cfpdWEpVDBMdPkCIm7rfX10B8D+HH6HyJ+UXyF7bXmba3wA9+iha0+D16rBXOFVtJqgrG2x//HHHF4+ifSvnI49I9Aa1f/k46Y48UPfhnZb4p7/AXcn9Mp85qyP8EQAaAAYCny03HeaXGZf9aPaunbHUki7nxMPSvdSNDybwzL1fL0WaxhgeRFNR5IIXLtiZlhkQ0Q9RtI7poNt/0o6sVqbQiocS2bMC7lKRZmOUOibIrt7vQ2Qbx1z0Y1z2E1iWR07oXDnXKWj6nSw9bGstC0m+2qNktwtchhSLP9/NQizySYtnpPbPd8hjapTo/d2wJcRcV5xStBPRMsEhzNZXDSsku/EL3psU5IaEhUafNka6zhjZUy1lvhrd/Od9BwT8k1ZPAaEnQUQdLlEobNsh5wlFH/QY6YSvk5AABqg2AD4rGSbEadn0aaXzCaDlLP7e9rsuGQ4MwZ6wvzMy7up4aPwAlcVOPQpLqnd1Mb2yeyaFN0VTRz9EFPY72wvxGFC4is49eJYYF1JPlKRili8HHyiJLG99hN0GLSamSvoG7umKPmwMfhK0rVbPL0UxoOz16iAW+sO7q2r1Y0oi0kI+bVG5t7Udb68zsTIkPgnftbWXucqsSSlcJ4CKT/9hFzxCmGM75R99QgTbfjIJymmRCXv2smkdGcqKVusgAtMKQw1iCXo983W6oAADYBsAAAAZt0E5XLEC7C3pxUJSVs35cNEzxGx9OwNKzx/HySECbjWyUb+q8WoONDa0KkTSOqk2RVYTvCPJUU2Z5Y/ZfM8mWvjUZaICUbOhi1w0iDH57/N1VHBhbE79mhmokNtjX4TTQEH4esrRbGRm6autGAHCDYAKU3TTcy5S3brozsva04t3VIbFiX04ViYSgSoexzfp1sg7RHxGmfWhZudb+SWdHGZLB7wN0kS8pclzq7/cvxuhOWeu86C+Bnqcvdw0MYCK8DR43ZYC6+UtwCy5jzdfU263pAf/hpJOvanHRn+17e6gSsjFqvKFTw87WR0H+dSA9Vb962/mRbZJEF//EdxjdZll/GAuCNllFcfU7UGwvEyAAY4NgAHGoxZGfhw9GPGCdMDgGn8p5cfP3i3w+C4Nuy+qZMEX+AGnWIOeZxYuWMUAKVJwisx+gkBuAH6fZhy6WjREKEJcetSQO6uHpkP/t63AZfO0fYZXGqR3g3C1wdEPA86uBCsUL+ebRG7kv7pU0hsjSP4ijKvPj7etu0hIJfrlzgpnekBDU2RqBavd2JPU6TcA1Tbv35vGAAfQMwHDOiDvQZ71jxVgtVxC5A7phsNG/yleUBeUCUtyOCcNVvLCTIM7V8ittj19OThRIBC8A8gbAAAAAAOkGwAABTrQAAAG0DYkkXgJMGEZ33GXDnDCnjgp+a0haIgrhOU1gAUjqZ9U2guTwNHw0juVTZyP4tarX3gZIdXmP18zQeYWyVFyUjWmh2oiHenRkDNdQhrAxQwiABmLDvVPM6+BtJGfPo9q9swsDcJ09vCMtNYeoNKUSmsVfT0OrkdLyr55g+1Ypd5lqgpTwTTwg5KN4/v93MuDo1MgC4K/1JGZrRQ1ZyUvFkt4rd5+Fh19JGId6tds9w/pcfQpH27xUnKhlpqvvx8rTJtZIkRVlfRFi5N8zl1O0i8dSUXT84/GBrBXEo09o9u2NX8oTxTpbaCOWgXl3wykVz3068xgcPsxzoxvlw5w+piV4HhEC5OpxUTAhwwsoyJQ5r3yWluXsroQHlGQS+xKy7gC70xQFA3D/lgGh4bgIHJ7wSeVMhzvti7K+ojhK1zaeNXSv5CTLvX1r6eHbFU9YCaIJo2soC8rOcH3oEXbNRkCACDylT1j5SHVBJi3iJluKFwyK+lawVvmfhZYtlro/2/pCmjXZQ7TI1KJsheTzfogPQnYh4qZdq+GXZlhPPtC+vrbdVB8GlFSl094DB6BNbhlUFK/MIckJP1P98xdDc4f5pKQSP84HMx5cKBJYFXOOsnzRDwlOmR7ASjA99rgKUCgbfEaaIqLP7p31SNmhRIkU63fvbqshp3Ou5JZ0AgPplCF37UbYfNBwGbBLb9J1FY3labOieHbJH2PyZ76FNTqlbHXth/1RdZeTldInUIGS7BbbtzfuTJEYLbFPO+LUYtI9/5iX+C4v5nSLV7YSd3kvg/Tsf7XwQUtZ26HkU88fqZpf8BE6tb9uVuhu/vrQlEYdtV9ORMFlUUAsYFjz8TS7dNfbslSowx6MpBs6JXaB/mK7kbjXzmFf3gQpzh/gILYGj2HxYOAV+gb5AsIQUCibvhqwGAFrs9ZdeHn0jTePo5wiJb61Sdxgg0n0bIqhB6p5nzpvjclh8IddVXVADhawLvebNxcADmBtV1FUy7wJ4t6slCz4U7S/JboQS/kTQdhxooDEIGksqM8xmeKvszcqa1zWPXaCTLSGLLZ3gJH4P5tKR/AKPZoM/mrgcVpPo6GokDXcyCz1njFYv604u7XqwPSHBjC1T1H5sA1PExenWqG7LW91oRenGSSx3CnLD+7u76Xm6XjX43I2uWWnmoEfDwwEAKWmIQ1rU0yb7AFDvnXobfVQaWTHbxe3inMyTpMGNneSns+IHm4bIqZZ0jHFyJDHGtq/qoMS7TwbgqDjg4XKsTb4INQLLcZqK19pKNZFYIGJs7uZJxlPE7LmFL/y1eouDR3Gho8aAvTZOzAbu7NfOiWD2x9iABmqW5eGX+ItuH0ExkxcnBIa5zEVNW9GPNexdFS0xamyi4JwzMpCdXuYzERcCJo1gVavunHYDnf5AslHn9RjOnvkXjuFgU8Ku88u5l4ht22awn1D/FI7LTKX0s2WGCqhvMiZoovPLav2KLudU/JfXwQsWG78Gr77lPK7ppJ15LcernaLQlAoIZC2Eij9kt5uQjwqnefVJsS7iu5JXVU4RhzVKFCIqtELjJQnJxnxd0HHm0nMcjEGOPV5AwIGKuDdI1GtLUMyv8LAOmQEV6eJlTG4sscLAL4uxsKtWKJAj9cWVpia0tT4Rk5GgIsw3+I6ekMifPgrCspngcZVp+5dGpn2TzMaPIs/q2kALwTLjLv8XPwz+kPqd9dRa0C0efDZfVEfO1GMvW2/iY2Ig5kY6LIWtmONsvN1Hdz9+TWQoaGWcjgM5kETIj/mM2YPVVwiEAmvSo1mVaiw9rvCgDz2aK6Iirs0cO/16iqvG4AnAvbhQCoXJi7isEoVClhfweBebzNS7WN9E6j13680PH5xF3DiRFfrInkavuXUC5AaZuCLs+hI9ZS4u64JCVwTDPasWpaIb+FB2kg0AeHgFY+AqcV1XmZPrn9eD2ij5EkGjHLZTqrd6p1JVklKcbDOnRhS9w2veMxuTgabDB8Dbm1DH80nP2HzbWEMZHkpBlAparZ+aITpV1681Sh9ZarXkFLO2ayGiZINaTPze06588cPrm1jlDfcjztiytjNQlSYCB6kF8LFF3yNIsMcf8G+qVqvX+Hinc+aPjf9O5QgGTzyng0baVBy4K9r5tXtcWdY96rQ5Zgo2EgoISxFs3WChyKI5OMetuOIvcuTtAQlLmVA/2FZHqOayCshQ7uYS5XklY0hSXWFs+JiazaGSFBaRlg2Qez6VBvgOsWtJKPATpybeKFUZ1jgZeVlH0M914UaC9CS1XjRPg/2YuJsPMWRILD/ZonTLE0vWr0nMaoGOStRt0utY8gVsIfsy0e6oK7IL3YgJe+qpSHt5ESwoccg9mjOrHIGuDUb3eIvJ2uwekmhs8vh9hTXIA0WhD26cQiuA/6ijWtRHbOKjiPcLzFR9yZvBqrxdmr65llHrQxRT1I2uMyMR2tjB196NCBkcKiEFHS+/yZ2b+YzPRBMb6UGoWyQ5SXvQvTxxGH0NiJIj7qDOBPhhHh88y6J6fW5IUTHA8zme7maiA9GM1BWGUv6NiVNMAM3vcdsv6Iy06/AagQDv7+fcTueWzfbrTZuacFSacZXEhDZLcLPnLJToiDRXEi1uXr4ZZtFQslLe56SoD8lPy/tkunR2HneLkq4bt/A02bIo0c6COcWDTgY/ZZyRdz5m7p7PsKWyFZSRxSVs7+ztN44aY+WRLIlIVO1ZPilyWlxUtxAZu1Jrj1LW7FZWtrGtRMJWNxo4H5KX/K87hr+fMfE5FOiYRNi07cxUmOEY8y4gxz+VBvokn8DB6zGJpOQgAXlK3VWekqRi9IcCugOKK021+3KzRP0R000EYdIHgZ2ktapqFmfX21iQ7IE+Z32TuBq5qS/ABpXrrN7FgnnFPzMX6oJmKWg4dyyg3kyMNBFHA4SQeYqWHzwpDqptb83SmH49Ltpp0MuJ7/R0+Ba1R0frwKhoh4EXcYt+9EQmvIkjooErhMUzi2yeB0kDmqIzlS8g5jd7OnVBiKAiGv/zJ1XYGe9sfWi+XbyblyiEHS9XkNupTp1SFNxmWsRD7+5+G+Eohep4MbPEDTX2bVFbVmbnoGfSa0R9hbR6gkjJZXtkNFovxb4EQTU1maEJaqiKm3Uoa5Z+PhaKkJDeQ/BP0TBCzMQHYmWWwzni3ZpXTe6pReuBbgjm67b/gGHzEvDqNT3QxTQoA4wpCs2hdKwX109RiglatXeWgLOXDPpTyKBseFigV/TefzpBM83mLEW9AF6RE5tRUxM7WN0EPpkDCpHkvjzWri5chxql1/3FgpzJnyddvHaLBgosKEpaUVqQrVBMNNq7SuhbWdHOi1hpPHKZnHSHdGN9zVtZc9MGTcETao0KJZquUVe65MXOMyiJQADTsd84Mry0kXArC9LC3LXDctMAHlE/i/45P6NreTe20FNo34A2OuGbXxI93Xp066kYJAuhwERDWmGImuMC2nQTy5U/nirWIA9gKQbL3J5rJzuXk3uft6x+Ib5opQ/2LockDvIA5qQ9mufD+62bEjrvbTQWV2MQ+aev1DtNJwaMXZ0I/LIw8/jXJlImaU+HJ02HKLTA+hYLoI+DL86j9AFdl7kQ/n8xHqnI2sZ3V2LgNuLrDSUxNLhhdleZl6NKwNURW6HkO1q5pS1nfRVXYfzX5TuuduwMvZzuKkAgkJWuET5iPhLGcgGJG2F0Du241uR5NNCSP24DMQyNzXdM1DZTC0c8HWNndreYBtMj079bKrnmOi57btek39fJiUjB9F2sEO/tTzb1Kn02Lj3BA6tgEiqVUtCctWGZFrKLfsgOlnRv0a4tVWQSVwkwDu2tQH1ui6k5uXtwjkPaYR1f87A1vARds7atdSe1FEokpGJlshbOGwuPb6rwqj4u8DW4xDC+YpOfciTeIvGPZpw0FmbnDZjIE01TnSY8sWy4U8HrymbQoAYIczNmhIrlh7QYrFHUUoAb5um91HLw7TlE7Wxj+Qn8f0Xdx3m9Key2p6QczqmEsu1Y3zWg+VkutNkaLPA0LKNSsB69Q6LV2CW78p1Ja9ivYROiQLL8yHv20XhxSrQcZZRWn/+NxtzIlp+szTLHSZ4u83SRo34xAb/2JjeRdCu4SjmG6IwAgmeQgZkDttcCHKn3Fg3j21jJAKbHA8ZDdp01NjNgfR/ptNEnapM6eEfwucqyc/Z/NKRLIAv3jRXLQfvUM/ECwN03QiP4+977yH9u0EYeYbwlh/cuG2mw7BMVCSdm7tvTEq15yFnwYKyCM97tNbh/Sz1wwd/qoQT+qlgayrpK7x6LnpXyatyeKb0AKujQ1FNgARk/puchP66Qne6QQ6a/qsxSjQJ0safIo8kjKNkrwzIa7OBwQN6N999hYN89N/7AtjD5oU0HONRdkHcTxbYu46UR9AQLj50xGxEX5kpkIWADUMwHmFV9YxbS2zjl7TmO2dLhFwsicKPYGVdzcsDWstPlrGeOoX9ixuI7drzY/B20BUN+3fodmVc1l5N0yL5AIj6R4cSeUrfTbZbPe66ccXvcre/7nTmblaPSSNHONkiew8YppOSHFCusFOBbgMczJUi7/+t1BfLv0JSnA0z4ouipn7r+e2P9YmHyzNUZq6DR5342NdjL/nEUT3snWrQ96ho/8uwG9r4zO+Cqm/UcJ+bEajLbYFhZt7/lpDm3dTdjMzaDN74hjrakXSk4+Erl4HtRll/TrSpScCZyAMaEylVL/LQ8x/PXoJbm+g/yt7lYLG/YFNfFkfxaMM9Zuve+I9u4P3KGvXoedrzoeJsA95Ka5wR4tiJ5wx3Kjme0hOc14CrkZ7/HrCPlvJbSKDzKCLwU8TxvyyaPsTn4iDa3yZ8VN/EpxOonf9e/f8jXkKsxaDW9fKhJtWJYoCmmix3dylt//D+nznKEcEiNz9/9j4YzlUz/6bAqmPKF6sS+e3falJI2ApJoo4PNs1J5acUtbaxIYfzXLscy29RuxLbIgU0wAlR5Sxvl/UGkuME1RItoDM7JFe+868nHZL23bBlJho8kCFo7zasqoT73Ce0jGKV9hVvVeklGQ3mf+hS0JScnrO69D+tWSwhTv4tUJWGcpAzBbDSPdZwc2wv4/e+sNSstjODmBatDcsB7qdeFIoZUhINLwzxZkgl6WEWCqqCPE6Arx8AMj0nALvmeJrI9viO9VdaUD4DYiLX3S6dVoafLuYiDPDCM9EPulvZfvMQ2tKRWXklm+4gtdVb4LZMaQKEyzdgleB/3j5WFU6xnGh1r88cOEHe63AzoKkfJf712io65D2BRkiQTz2ouCVjKyO0C5AQ9Ft+fDj+1sOeA0jaLbE91UbGqlJmAw1y/hn1STu5EvXDsDOlwEOjWgDxDccgl/G/uzVS3B4OM9e3CjfyIdXB91w1v7/Gtwm4dDZThs31uSRoWmtnVlN3av9E5hU2r976oT1At0VpENceY7vSniheQ8D1Lvkwqi69xNS11R4JWzHDMiyr1BHs1kYOwUbA56Q3GveSf8yLBUkCzEGqvFwVOKNhf9/4loiiIBZqm+27VgTQlX7S1kqW0cyDB/K2mQwFJG8RJcqRHIYUaY0qQfv8/tw/oxSOlJzU+X8azikuXeiC1iD10Nrp7lxCrZVwJ53ljibicgIsUeyLVuTQbF/oU8NRphFQyb0XlNujVpetbXH8C3cFTLr9H27mNehSZ8KUJh1dUr3+YdvBYtTB4t5VQvVX//Yeu+0H6f61t+3WSSaD7+Ubp0kp2ywSitcl4lB2c8WE7DQJy+PoMs/EfhRfhkF0pr9piREVLnFDZvWWrHn1UoguFM4X8CHRlhYkJoeZSdr6FPB+Lu/Zjn1wa3UWFWpfjUSeJm4aqvMj39nh8oKfudjzWovzYnjpEHyRWroqI/CwvMGnsxPyhsIIr7jTEeMJw4Mu8DqcuhVWs5KYppZtn295bWQDzUDrmTg7CKGMIJllIEVkI8FyAQ+Eq7MDBZCq+4cIEKxtkPwkPZ8F0E9D4sgLCi9Ka1YEDR34fV5OYMK3FWG74LAEXGNBkA2B43IfNygTdzOVgmD+XplvFNAfd1IadlHBCC8zZXKGN4Fju0QNyrI4t5wBFwYVe6L7HPhmSX3UzxcVj0/nGFciZJTlwkLmrQbROlSq/+0vFGKDVsZewkwekwQ9JN5G7/sUrUusEcUGH+HfNJpFHJljJpNJa3ZGeMnvdJe/57WLf/ivyIenqhSlA2AgozCRUJITJZXPKCovGzlU/LZnK39WK118HRFvyfebpdjPE2gBKPo1eqn8VtA4FHqWAIPwoFtMK21sKCcDJ6CrlKsgZTnZDNLIX06cSJEqAlWz4odi0GGq9rxMFEXb14fQrZYaebUeYIh2gdOK9WnkYWo8J7M/bMAvgrTUrslftmwfZPCvx/ZoTOFJwg0QELeCj7slYhhw4Dv8YSDNQFOKJQjJaRhD2+hg0CZY9p77gJxDb2vuSqobKjuazeQ7y86YAqSmmsPLIjlVdsAyGOKKP8PWXciTmWDAgO3Q6bRR0YrzECsgeByYsWtl7trfBD70N78f5mL9VswqmhCLz8wIRznHJ220PVSsnG/kA+FzG157oMV3exUhqWuRG86Z6CWYYB7TRZUqvHvQeJkKla5kHIi27eyXNQ+xxWJ84R9ENMyr+4lH08+G1UrT+G0N5O+lZl/VNlMSqmx/kqxMmLwSYoJwfv0FLW4eT9ZY15NObZ+BzhTxWxlLoPhyWlzUjkR46goEeinosQ7GHz+WCF7pXF3l9gZnCiJhqRG7vJZ/ZOCXjnbHnir+14GfJHuM1s1SDGjmfjtVHJ5KqYpxmWzahFoe6Y3kCBDfoGMdLPoUira2suymzLMP09GN4SU1ht0BH3coZMkrE2RRDkaAEHHnEtW0R9dt/rkPND2JUUa6Mj0rZ8H5/lyqVipezB6WwWseWI/30L1K4JHyRplJtYHD+I/Iv75PzSawFUp3ReiTymgIalbYs57cmTiQGTFVYTRLFgPBjVO5pXQwz/84+WBiQmWZwKtYjXBcaJzFFcBV5Fac0Fccwu5JUsGCemsY3+LizpjF00vqWvenV21OhNLCglSQBtQj7GeXK1ivjmt5Cet3gMvKuwS14Tva8IFX5kwCeWNGPX3UA5RiT8KEUvLvCBKdfAP/qAylp2277qJ+jAzrl6A3GV1/Mw+WDa3YkJAeRrzbMxzYogYaLjybcnhJvKHluUZnVl9KFs8YhgaO7uwsomLEJNmBIef3U0K+/z29xwgML9FMPHhQmPYyt7ZlUPgElg2KOtcal56KsRzTguwduNmf3OS/CYdDj46eq1wbIG2ZBGWkReyRHJfCMnc6PW7nHV66WpkSlw36aVNpZU8wfhyAFkVuKPVY42D76JfSdu8NcZgtPzK4ZYt+JtxFYtCCXU0NHOhu2tJhC3xdlX7B/g+TxrxwJMVCaoV9bmsnwlFP0T+cb3BMqTTU2opBHvpgbAl89JlSk/Udf8uwNR6R4ywR+6sO1ItgoRHyOi4e33zIV5cN52dgXsqIZZjFYTxpqxMgKBL5A0BqEz45fv3596oDbVn2nEuyjehRdKwGwDDhPSoM1JqhXmZean0zt1DRtwm86eote7B8blbQhdOjTQS5N1m0/GKV6P4JbOS7u+q6bgYZ4z9oq9n4wGhmZrUFX15D7vyhvRH/hNiTQWYmncpveR2btRxlOC7WmK+iWDwMINiEdji4z+mDK06Mh7DfJB8NhmgWWd/2LTgaoJcqpmaPp+aMkl4lOmPeI/RpwSxGWzaXybRJFLmOwX/hOyiRijgFUxyaqg2r1jpjwYcKWGOev+OcMTfu6XgLuWy0sa8ED01vJ4Sa/OdwFk+0aXGNh5a+GX6g1aVXToHoPEEPQ6INcEc8ophUPdVncdWmlifV9xwt8sLD22e3KX7MKZPpNnX34G8SD3oHX+CEu4cDp6HgGxokz0ZyYypHbF27hV5quZPFSVC6CPq8PQ0e7t/ihvqdrL83qgGSYj+g/g0VnMxxXGKrU1PN8ZzJiGUFcysp3SMNYKuGWI4ogfesq8gazbgiPSxbLc3iWRnUl1y2JvHcbbXIK7M0MYVYJNWrGXF37on0tuucKDv8KstAmt6suZHNY6FUvjazFaq93FhY9ZXYM0ywq0ayZ9NihaiKlJsxF+ymnPMn7kArdHeVD2LqKJs7U9bmNFHPwSx3QaU9cXUtQbhGjVpi+hw04YPLW24UtsNM8tXEYWcQi/XzpZ3Tw1Ahr+fkCEKLyJzT76Q0LZeiMC9rbuRgDaIt6y9b5BEBfw0pBHS0cRPqUkDYVCbkEDohTVd7yNe1fVsHKXtSvcOYtT0O6O95GE+sn6KAbVwdGX89fS8inC6fKpg0IGHLS7MORsdJk9il6CLa3pfpNqmd+FfsiNBxba4S5fbUl0NMh5nA2DnYN9Nk8U0z2OTZCYaMVcGL986CD/GGUi/Ch3ML9bt0kb1+jDc79pfwU4fXUhpPVD44mJUG9FYpkET+hOCYttMy29QIPwjUIlGwa12+5EZbMYwxhZlqtqbg/jJ6VgJ0t849INACBdKMNyjiXK8DJx+4nQNokEYpjetgXSa4IfhoD22W3RAOUlEJt7BvPXwGov7p3CZLdTwrMlwE2gz9mZbin8JgdqmrYDvpMMQKTP59QiqkK0ghz3H2/9dzTT1sx2j+BAPnf+4DQcRkw5+U69j4lHjJporXNjz3ehfnzcBcF57VWdhXA24G3p9kopUXQ2/YSu98HBO2uwsdELKk/6Mus17hREid5IkOnCMB4NoG1XSp7tSBhF5443cR9HX5NYfmiwvbnrcp9oRquyeaMj9/OD881uoi9JdNARlcMFO5GkMGo5uSHFwE/GXVuZDaFIqZfoEFJJryLKaFnGqt6Hk4wlWKkRva5TqkgDI5scOfWvtrL1aKch+GcpNpVSrFRzrdfpLE4dcR5gGBrS1B77iERdyFLXNcb3oVpRDvu/fuPtgf1+ivYOPg4xSuJFqvUQIvYduCuGP2cZcwk2iv/lHn94/ElWvoAbx3ASpBBmGHro7jvWPp/wKdMhSFUfGv7uzV7RJveimKE2UCcEUW1Xupkwgb1e4vGqcP0dWwiKzAilLxGMMzWrweMj2AGGgRSuuDG25pf7L8LtldJ4RXh/jQR9+YsULjgkBsG5NgBuu7Fw7wHwO2JJe36NanzPNJe3U9cDeEAoYMWGDLcMSI0m4YlOzQ6J/qAHpPNMexh2nuhP58CjEM4I59jYignxYPDoTw8ysvqrkQlMrNG3sbPALTfcwucm+PnXP8K0MKoXGOKjPzpmMsai7zto+ATZ7U3V8MCeaQa5DKsmVN0PnsWQ3/lSPFBwMODyPGehAnOMIVaw1O9rvHAnuEXiwtKiv/uDBqSYUH21NfJW097p6+Aae9HWKcWS4lP7/oKJscrMeOOuIm5AaFmJ2/W57lC9dl4AjLPNWhy5vGlzdgcEUXFySFjwcUewUfd3hVlYw2Rs+76E6oBdMYQh5PbAfdYKL1+qggxCiWalBKnyTzo2tvj0x3Z9l2SD5btTsCzWi3YhdxkhfYA+9T/iR93L6Z6refnkF8eNFWFFZSgSYs6jpsWAGbKAXzO2UmzjhxTcOJusnVKOebR6s+PSN9pXpXwf/4J79VOVkXFnjQkPAPrQ1J0jPqSv2eh3p9pE/+zn+e3t4nPZ2x0gl+/M197IEY1udgiOvaOyt7T5ZxHw4/cvo2E8rk+yOOgaxlDx7l58eBepY3QFoWhkQglRBwps2kprvKx9KrvVdW+2E4sX2SGX3W3dbj5bPXEG3s+YoTV4XuJFdVxnvqichzVIul99huzXNiKE6fEiTLvvBW0yqdMMZsWmGeb1aeiF9vogY56DOdzlJQpZKBOjx2WlacIXmg/UVH9Ulsd7RnuQ2ciS6gMWvws/hProXwnqMxCFPMbcOV+yB2Dxa77JWQd8CohTFppq/qzWjfpptmtHfuTiW+BRryDzLDEdxvgdPjjYYCnLK/UVmY+xRNBwoohbAAqSpKjD/jaxl3GbPIs73zw84IuyjKmdq4ZGQgtCPoMaweTqM6F/vPK1xHjHcpeo+F9Fwr1IhbokDxNg70CGwaflVk9fkkGSnE+4FZBfSpOKYmkzPTs+g8Av7mVwMv0TXJH22MDHYbMxgW3uVg3OwFYDhYF3K0tkcGLsCB5ebmhl8JEfDqYZVf38Z7v7bI6QQkKr7jKqF8qqfEZP0H3rLd2yE2v3wtT32vSxBlDObM8nxXQ6T2IM9UDKXmICYWgAAAAAAL1PRCFwGEy0LDQ0OnEgAAXVvGGLljQAG5MtCgAAAHSDYAAAAmFoAAADaBsAAAU60AAABtA2AAAKdaAAAA2gbAAAFOtAAAAbQNgAACnWgAAAAAAAA;imageBorder=#FFD966;" vertex="1" parent="1">
          <mxGeometry x="360" y="220" width="47.5" height="47.5" as="geometry" />
        </mxCell>
        <mxCell id="-A37LQIsE4QHnwAx1lAB-9" value="Power BI Service" style="shape=image;verticalLabelPosition=bottom;labelBackgroundColor=default;verticalAlign=top;aspect=fixed;imageAspect=0;image=https://blog.coupler.io/wp-content/uploads/2024/05/5-power-bi-architecture-diagram-1024x614.png;clipPath=inset(20.56% 30.67% 42.22% 33%);" vertex="1" parent="1">
          <mxGeometry x="398" y="278.91" width="134" height="82.37" as="geometry" />
        </mxCell>
      </root>
    </mxGraphModel>
  </diagram>
</mxfile>
